<svg height="256" width="256" xmlns="http://www.w3.org/2000/svg"><path d="m0 0h256v256c-84.48 0-168.96 0-256 0 0-84.48 0-168.96 0-256z" fill="#fdfefe"/><path d="m0 0c2.5625.1875 2.5625.1875 4.5625 2.1875.12358887.64428955.24717773 1.2885791.37451172 1.95239258.85864059 2.81085817 2.12167768 3.35013335 4.63330078 4.80932617.82242188.47888672 1.64484375.95777344 2.4921875 1.45117187.86625.4866211 1.7325.97324219 2.625 1.47460938 1.26457031.74733398 1.26457031.74733398 2.5546875 1.50976562 4.84954474 2.7749336 8.72294386 4.47660043 14.3203125 4.80273438.495 2.475.495 2.475 1 5-1.485.495-1.485.495-3 1v21l4 2c.41765625.93070313.8353125 1.86140625 1.265625 2.8203125 2.35030108 4.30888531 5.25008802 5.78300799 9.484375 8.0546875l2.09375 1.21875c4.62018795 2.55326176 7.78853759 3.13552415 13.15625 2.90625l2 2c-.55555556 4.55555556-.55555556 4.55555556-2 6-.23481693 2.18292774-.41363323 4.37203174-.5625 6.5625-.08378906 1.19753906-.16757813 2.39507812-.25390625 3.62890625-.06058594.92683594-.12117187 1.85367188-.18359375 2.80859375l4 1c.6875 2.8125.6875 2.8125 1 6-1.3125 1.875-1.3125 1.875-3 3-.66 0-1.32 0-2 0v6c.8146875.22429687 1.629375.44859375 2.46875.6796875 5.17036774 1.93316847 9.61370158 4.90301008 14.25390625 7.86328125 4.3157387 2.64811874 7.05912154 3.9563056 12.27734375 3.45703125 1 1 1 1 1.125 3.5-.125 2.5-.125 2.5-1.125 3.5-.15786308 1.85174706-.25107356 3.7090911-.31640625 5.56640625-.04189453 1.12470703-.08378906 2.24941406-.12695313 3.40820313-.0393164 1.1840039-.07863281 2.36800781-.11914062 3.58789062-.06477539 1.78180664-.06477539 1.78180664-.13085938 3.59960938-.10647608 2.94583846-.20848903 5.89176492-.30664062 8.83789062l4 2c-.33 1.98-.66 3.96-1 6-1.3303125.2165625-1.3303125.2165625-2.6875.4375-1.093125.185625-2.18625.37125-3.3125.5625-.74507812.0928125-1.49015625.185625-2.2578125.28125-3.68091018.96479697-6.70321956 2.82918632-9.9296875 4.78125-6.5625 3.9375-6.5625 3.9375-8.8125 3.9375-.12375.969375-.2475 1.93875-.375 2.9375-.20625 1.010625-.4125 2.02125-.625 3.0625-.66.33-1.32.66-2 1-.33 5.94-.66 11.88-1 18l4 1c1.32296047 6.37426409 1.32296047 6.37426409 0 8.9375-2 1.0625-2 1.0625-4.97265625.7734375-5.55226399-.07829195-9.86598277 3.1884826-14.46484375 5.9765625-1.35448242.79567383-1.35448242.79567383-2.73632812 1.60742188-5.1054606 3.00381437-5.1054606 3.00381437-10.05712891 6.25048828-5.00296627 3.43797848-5.00296627 3.43797848-8.83154297 3.52099609-4.26214993-1.54729645-7.92923658-3.84633627-11.7265625-6.27148437-3.99259153-2.43161137-6.58977207-3.003143-11.2109375-2.79492188-.66-.66-1.32-1.32-2-2 .25-1.6875.25-1.6875 1-4 .350625-1.2375.70125-2.475 1.0625-3.75.309375-1.0725.61875-2.145.9375-3.25-.71478516-.26586914-1.42957031-.53173828-2.16601562-.80566406-2.90758836-1.22535512-5.47801475-2.67331087-8.17773438-4.30371094-.99902344-.58910156-1.99804688-1.17820313-3.02734375-1.78515625-2.09282453-1.24106323-4.17877966-2.4937813-6.2578125-3.7578125-.99902344-.58394531-1.99804687-1.16789063-3.02734375-1.76953125-.90556641-.54237305-1.81113281-1.08474609-2.74414062-1.64355469-2.56930747-1.20329657-2.56930747-1.20329657-5.14990235-.24731445-.80840332.43320557-1.61680664.86641113-2.44970703 1.31274414-1.12075928.572948-1.12075928.572948-2.26416016 1.1574707-2.46113705 1.3721407-4.91328034 2.75880786-7.36083984 4.1550293-1.28777344.7105957-1.28777344.7105957-2.6015625 1.43554688-4.56003008 2.60420468-7.36261165 4.43030142-9.7734375 9.25195312-2.6875.3125-2.6875.3125-5 0-.24532471-.76602539-.49064941-1.53205078-.7434082-2.32128906-1.43717652-3.0636683-2.47339669-3.86839614-5.36206055-5.53808594-.81919922-.47566406-1.63839844-.95132813-2.48242187-1.44140625-1.28680665-.71736328-1.28680665-.71736328-2.59960938-1.44921875-.83853516-.49371094-1.67707031-.98742187-2.54101562-1.49609375-4.83122751-2.75315853-8.70290945-4.42235375-14.27148438-4.75390625-.38218767-1.65614657-.71395102-3.32457024-1-5 .33-.33.66-.66 1-1 .15971977-2.37338639.2592433-4.72118272.31640625-7.09765625.0207811-.70885849.04156219-1.41771698.06297302-2.14805603.06556671-2.27216077.12441303-4.54444036.18312073-6.81678772.04317849-1.53712183.08679255-3.0742315.13085938-4.61132812.10727511-3.77526778.20852199-7.55065548.30664062-11.32617188-.99-.33-1.98-.66-3-1-.6875-2.3125-.6875-2.3125-1-5 .48339844-.41378906.96679688-.82757813 1.46484375-1.25390625 2.32939045-2.64945937 1.86168156-4.91980209 1.78515625-8.37109375-.01546875-1.16789062-.0309375-2.33578125-.046875-3.5390625.11511053-2.73596283.11511053-2.73596283-1.203125-3.8359375-.04063832-1.66617115-.042721-3.33388095 0-5l2.125-.375c6.3159033-1.37302246 11.21296447-3.84754151 16.625-7.25 6.99194785-4.375 6.99194785-4.375 9.25-4.375.12375-.5775.2475-1.155.375-1.75.63148824-2.27335767 1.51358191-4.1753529 2.625-6.25-.66 0-1.32 0-2 0-.042721-1.66611905-.04063832-3.33382885 0-5l1-1c.23653523-2.52596259.42173692-5.03107207.5625-7.5625.04318359-.71091797.08636719-1.42183594.13085938-2.15429688.10635839-1.76082224.20702908-3.52198632.30664062-5.28320312-1.32-.66-2.64-1.32-4-2 .875-5.875.875-5.875 2-7 4.53488372-.23255814 4.53488372-.23255814 7 1 3.32045516-1.39857036 6.38590929-3.31946571 9.5-5.125.88042969-.48726562 1.76085937-.97453125 2.66796875-1.4765625.84175781-.4846875 1.68351562-.969375 2.55078125-1.46875.77279297-.44102051 1.54558594-.88204102 2.34179688-1.33642578 2.37548966-1.95146596 2.91187193-3.7416654 3.93945312-6.59326172l2-1c.33-6.93.66-13.86 1-21-1.32-.66-2.64-1.32-4-2-.125-2.375-.125-2.375 0-5 .66-.66 1.32-1.32 2-2l3.6875.4375c7.66962392.27570544 14.16629285-5.41853389 20.3125-9.4375l2-1c.70211894-1.65204456 1.36971413-3.31923769 2-5 1-1 1-1 3.4375-1.1875z" fill="#4c7ea3" transform="translate(131.4375 20.8125)"/><path d="m0 0c2.5625.1875 2.5625.1875 4.5625 2.1875.12358887.64428955.24717773 1.2885791.37451172 1.95239258.85864059 2.81085817 2.12167768 3.35013335 4.63330078 4.80932617.82242188.47888672 1.64484375.95777344 2.4921875 1.45117187.86625.4866211 1.7325.97324219 2.625 1.47460938 1.26457031.74733398 1.26457031.74733398 2.5546875 1.50976562 4.84954474 2.7749336 8.72294386 4.47660043 14.3203125 4.80273438.495 2.475.495 2.475 1 5-1.485.495-1.485.495-3 1v21l4 2c.41765625.93070313.8353125 1.86140625 1.265625 2.8203125 2.35030108 4.30888531 5.25008802 5.78300799 9.484375 8.0546875l2.09375 1.21875c4.62018795 2.55326176 7.78853759 3.13552415 13.15625 2.90625l2 2c-.55555556 4.55555556-.55555556 4.55555556-2 6-.23481693 2.18292774-.41363323 4.37203174-.5625 6.5625-.08378906 1.19753906-.16757813 2.39507812-.25390625 3.62890625-.06058594.92683594-.12117187 1.85367188-.18359375 2.80859375l4 1c.6875 2.8125.6875 2.8125 1 6-1.3125 1.875-1.3125 1.875-3 3-.66 0-1.32 0-2 0v6c.8146875.22429687 1.629375.44859375 2.46875.6796875 5.17036774 1.93316847 9.61370158 4.90301008 14.25390625 7.86328125 4.3157387 2.64811874 7.05912154 3.9563056 12.27734375 3.45703125 1 1 1 1 1.125 3.5-.125 2.5-.125 2.5-1.125 3.5-.15786308 1.85174706-.25107356 3.7090911-.31640625 5.56640625-.04189453 1.12470703-.08378906 2.24941406-.12695313 3.40820313-.0393164 1.1840039-.07863281 2.36800781-.11914062 3.58789062-.06477539 1.78180664-.06477539 1.78180664-.13085938 3.59960938-.10647608 2.94583846-.20848903 5.89176492-.30664062 8.83789062l4 2c-.33 1.98-.66 3.96-1 6-1.3303125.2165625-1.3303125.2165625-2.6875.4375-1.093125.185625-2.18625.37125-3.3125.5625-.74507812.0928125-1.49015625.185625-2.2578125.28125-3.68091018.96479697-6.70321956 2.82918632-9.9296875 4.78125-6.5625 3.9375-6.5625 3.9375-8.8125 3.9375-.12375.969375-.2475 1.93875-.375 2.9375-.20625 1.010625-.4125 2.02125-.625 3.0625-.66.33-1.32.66-2 1-.33 5.94-.66 11.88-1 18l4 1c1.32296047 6.37426409 1.32296047 6.37426409 0 8.9375-2.93855335 1.56110647-5.70042112 1.0625-9 1.0625-3.35161246 1.38214122-3.35161246 1.38214122-6 3-.33-.66-.66-1.32-1-2 .804375-.350625 1.60875-.70125 2.4375-1.0625 2.94339389-1.77648202 2.94339389-1.77648202 3.25-5.5.1546875-1.7015625.1546875-1.7015625.3125-3.4375l2-2h3c0-5.94 0-11.88 0-18-1.32-.66-2.64-1.32-4-2 0-1.65 0-3.3 0-5h2c0-.66 0-1.32 0-2 1.15757812.0928125 2.31515625.185625 3.5078125.28125 5.07951641 0 8.24422207-2.01321071 12.3671875-4.78125 6.94594595-4.5 6.94594595-4.5 9.125-4.5.33-1.98.66-3.96 1-6 .99-.33 1.98-.66 3-1-.13890602-4.25025618-.28731994-8.50012842-.4375-12.75-.03931641-1.2065625-.07863281-2.413125-.11914062-3.65625-.0628418-1.74023438-.0628418-1.74023438-.12695313-3.515625-.03665771-1.06831055-.07331543-2.13662109-.11108398-3.23730469-.17725474-2.45248053-.33168703-4.5448175-1.20532227-6.84082031-1.97145886-.74685635-3.98059919-1.39463663-6-2-2.81644828-1.40471411-5.52766204-2.98444146-8.25-4.5625-1.42173013-.81405515-2.84359863-1.62786869-4.265625-2.44140625-.62165039-.35908447-1.24330078-.71816895-1.88378906-1.08813477-1.1814369-.67018972-2.38569586-1.30051394-3.60058594-1.90795898.14154136 2.56280208.28808562 5.12515485.4375 7.6875.03931641.72123047.07863281 1.44246094.11914062 2.18554688.22521616 3.79402594.57175243 7.41346804 1.44335938 11.12695312-.556875.12375-1.11375.2475-1.6875.375-4.31209341 1.16543065-8.1116392 2.97687735-11.95703125 5.2265625-.84111328.48984375-1.68222656.9796875-2.54882813 1.484375-.8643164.50789062-1.72863281 1.01578125-2.61914062 1.5390625-.88365234.515625-1.76730469 1.03125-2.67773438 1.5625-2.17171351 1.26781114-4.34154742 2.53872348-6.50976562 3.8125 0-.99 0-1.98 0-3 .62044189-.34256836 1.24088379-.68513672 1.88012695-1.03808594 2.81595897-1.56152213 5.62415032-3.13652493 8.43237305-4.71191406.97646484-.53882813 1.95292969-1.07765625 2.95898438-1.6328125.93779296-.52851563 1.87558593-1.05703125 2.84179687-1.6015625.86407471-.48178711 1.72814941-.96357422 2.6184082-1.45996094 3.00192968-2.05879839 4.92281137-3.94580567 5.7006836-7.5703125.02618408-.69125976.05236816-1.38251953.0793457-2.09472656.03544922-.75410156.07089844-1.50820312.10742187-2.28515625.0338379-1.16595703.0338379-1.16595703.06835938-2.35546875.03416016-.79277344.06832031-1.58554688.10351562-2.40234375.08217542-1.94873129.14726483-3.89816987.20898438-5.84765625-.65597168.39380859-1.31194336.78761719-1.98779297 1.19335938-2.95971312 1.77341435-5.92338623 3.54010059-8.88720703 5.30664062-1.54880859.93005859-1.54880859.93005859-3.12890625 1.87890625-.98613281.58652344-1.97226563 1.17304688-2.98828125 1.77734375-.91120605.54462891-1.82241211 1.08925781-2.76123047 1.65039062-2.24658203 1.19335938-2.24658203 1.19335938-4.24658203 1.19335938-.33 1.65-.66 3.3-1 5-4.75 1.125-4.75 1.125-7 0 0-1.65 0-3.3 0-5-.83273438-.23460937-1.66546875-.46921875-2.5234375-.7109375-4.78297232-1.77346165-8.8085894-4.44258764-13.0859375-7.1875-3.49874955-2.1814066-5.1650183-3.1015625-9.390625-3.1015625v14l3 1c.18163696.92087402.18163696.92087402.36694336 1.86035156.95119615 3.21491827 2.87464687 3.79625513 5.76196289 5.37402344 1.03447266.57363281 2.06894531 1.14726562 3.13476563 1.73828125 1.08861328.58652344 2.17722656 1.17304688 3.29882812 1.77734375 1.6387207.90298828 1.6387207.90298828 3.31054688 1.82421875 2.70277459 1.48711615 5.41166189 2.96168154 8.12695312 4.42578125-.33.66-.66 1.32-1 2-.58491211-.32274902-1.16982422-.64549805-1.77246094-.97802734-2.65873306-1.46646899-5.3181285-2.93173268-7.97753906-4.39697266-.92039062-.50789062-1.84078125-1.01578125-2.7890625-1.5390625-1.33417969-.73476563-1.33417969-.73476563-2.6953125-1.484375-1.22541504-.67554932-1.22541504-.67554932-2.47558594-1.36474609-.75571289-.40814942-1.51142578-.81629883-2.29003906-1.23681641-.66370605-.39445312-1.32741211-.78890625-2.01123047-1.1953125-3.99170304-1.61510597-8.03038619-.04650574-11.98876953 1.1953125-3.71260074 1.6165817-7.1510457 3.55092062-10.625 5.625-.90878906.49628906-1.81757812.99257812-2.75390625 1.50390625-4.63062635 2.59001278-4.63062635 2.59001278-7.34277344 6.91308594-.18189669 3.3534287.30590598 5.47219213 2.4897461 8.02392578 2.17844965 1.88773553 4.27562275 3.31022993 6.77880859 4.73095703.84433594.48339844 1.68867187.96679688 2.55859375 1.46484375.87269531.49113281 1.74539062.98226562 2.64453125 1.48828125.88816406.50660156 1.77632813 1.01320312 2.69140625 1.53515625 2.18299433 1.24407204 4.36918415 2.48210819 6.55859375 3.71484375-.33.66-.66 1.32-1 2-2.60499124-1.45687658-5.20901482-2.91543651-7.8125-4.375-.73798828-.4125-1.47597656-.825-2.23632812-1.25-.71220704-.39960938-1.42441407-.79921875-2.15820313-1.2109375-.65460205-.36657715-1.3092041-.7331543-1.98364258-1.11083984-1.64108923-.95529065-3.22936057-1.99991226-4.80932617-3.05322266-7.18713828-1.36949357-12.05859864 1.13985181-17.9375 5-1.48620092.94079442-2.97438695 1.87846261-4.46484375 2.8125-.64445068.41894531-1.28890137.83789062-1.95288086 1.26953125-1.64477539.91796875-1.64477539.91796875-3.64477539.91796875.04125.78375.0825 1.5675.125 2.375-.125 2.625-.125 2.625-2.125 4.625-3 .25-3 .25-6 0-2-2-2-2-2.25-4.5.25-2.5.25-2.5 2.25-4.5 1.84985352-.02172852 1.84985352-.02172852 4.06640625.18359375 5.67404704.12614044 9.2202046-2.09615875 13.87109375-5.12109375.75345703-.46857422 1.50691406-.93714844 2.28320312-1.41992188 1.38397252-.86111092 2.7628402-1.73052598 4.13452149-2.61108398 1.64477539-1.03149414 1.64477539-1.03149414 3.64477539-2.03149414.33-.99.66-1.98 1-3h2c.33519206-3.27506719.17319302-5.90579643-1-9-3.37537437-2.99201737-7.22986462-4.87222397-11.25-6.875-1.57587891-.83144531-1.57587891-.83144531-3.18359375-1.6796875-1.95981167-1.03331008-3.92691289-2.05299733-5.90332031-3.05419922-.87881836-.45906738-1.75763672-.91813476-2.66308594-1.39111328-1.38529907-.69887329-1.38529907-.69887329-2.79858398-1.41186523-2.20141602-1.58813477-2.20141602-1.58813477-2.86083985-3.58105469-.01571045-.73839112-.0314209-1.47678223-.04760742-2.23754883-.02900391-.80244141-.05800781-1.60488281-.08789063-2.43164063-.00580078-.8333789-.01160156-1.66675781-.01757812-2.52539062-.02513672-.84498047-.05027344-1.68996094-.07617188-2.56054688-.05885546-2.08348362-.08795807-4.16776939-.11132812-6.25195312-3.07276622.62803255-5.36680364 1.6558462-8.0390625 3.28515625-1.11761719.67192383-1.11761719.67192383-2.2578125 1.35742187-.76828125.46857422-1.5365625.93714844-2.328125 1.41992188-1.53144693.932351-3.06519538 1.86093541-4.6015625 2.78515625-1.01441162.61887085-1.01441162.61887085-2.04931641 1.25024414-1.72412109.90209961-1.72412109.90209961-3.72412109.90209961-.144375.639375-.28875 1.27875-.4375 1.9375-.5625 2.0625-.5625 2.0625-1.5625 3.0625-.23481693 2.18292774-.41363323 4.37203174-.5625 6.5625-.12568359 1.79630859-.12568359 1.79630859-.25390625 3.62890625-.06058594.92683594-.12117188 1.85367188-.18359375 2.80859375-.33 0-.66 0-1 0 0-4.29 0-8.58 0-13-.99-.33-1.98-.66-3-1 0-1.65 0-3.3 0-5l2.125-.375c6.3159033-1.37302246 11.21296447-3.84754151 16.625-7.25 6.99194785-4.375 6.99194785-4.375 9.25-4.375.12375-.5775.2475-1.155.375-1.75.63148824-2.27335767 1.51358191-4.1753529 2.625-6.25-.66 0-1.32 0-2 0-.042721-1.66611905-.04063832-3.33382885 0-5l1-1c.23653523-2.52596259.42173692-5.03107207.5625-7.5625.04318359-.71091797.08636719-1.42183594.13085938-2.15429688.10635839-1.76082224.20702908-3.52198632.30664062-5.28320312-1.32-.66-2.64-1.32-4-2 .875-5.875.875-5.875 2-7 4.53488372-.23255814 4.53488372-.23255814 7 1 3.32045516-1.39857036 6.38590929-3.31946571 9.5-5.125.88042969-.48726562 1.76085937-.97453125 2.66796875-1.4765625.84175781-.4846875 1.68351562-.969375 2.55078125-1.46875.77279297-.44102051 1.54558594-.88204102 2.34179688-1.33642578 2.37548966-1.95146596 2.91187193-3.7416654 3.93945312-6.59326172l2-1c.33-6.93.66-13.86 1-21-1.32-.66-2.64-1.32-4-2-.125-2.375-.125-2.375 0-5 .66-.66 1.32-1.32 2-2l3.6875.4375c7.66962392.27570544 14.16629285-5.41853389 20.3125-9.4375l2-1c.70211894-1.65204456 1.36971413-3.31923769 2-5 1-1 1-1 3.4375-1.1875z" fill="#3c7aa7" transform="translate(131.4375 20.8125)"/><path d="m0 0c5.875 1.875 5.875 1.875 7 3 2.32817964.36760731 4.6618385.70241581 7 1 .495 2.475.495 2.475 1 5-.99.33-1.98.66-3 1v21l4 2c.41765625.93070313.8353125 1.86140625 1.265625 2.8203125 2.35030108 4.30888531 5.25008802 5.78300799 9.484375 8.0546875l2.09375 1.21875c4.62018795 2.55326176 7.78853759 3.13552415 13.15625 2.90625l2 2c-.55555556 4.55555556-.55555556 4.55555556-2 6-.23481693 2.18292774-.41363323 4.37203174-.5625 6.5625-.12568359 1.79630859-.12568359 1.79630859-.25390625 3.62890625-.06058594.92683594-.12117188 1.85367188-.18359375 2.80859375l4 1c.6875 2.8125.6875 2.8125 1 6-1.3125 1.875-1.3125 1.875-3 3-.66 0-1.32 0-2 0v6c.8146875.22429687 1.629375.44859375 2.46875.6796875 5.17036774 1.93316847 9.61370158 4.90301008 14.25390625 7.86328125 4.3157387 2.64811874 7.05912154 3.9563056 12.27734375 3.45703125 1 1 1 1 1.125 3.5-.125 2.5-.125 2.5-1.125 3.5-.15786308 1.85174706-.25107356 3.7090911-.31640625 5.56640625-.04189453 1.12470703-.08378906 2.24941406-.12695313 3.40820313-.0393164 1.1840039-.07863281 2.36800781-.11914062 3.58789062-.06477539 1.78180664-.06477539 1.78180664-.13085938 3.59960938-.10647608 2.94583846-.20848903 5.89176492-.30664062 8.83789062l4 2c-.495 2.97-.495 2.97-1 6-1.3303125.2165625-1.3303125.2165625-2.6875.4375-1.093125.185625-2.18625.37125-3.3125.5625-.74507813.0928125-1.49015625.185625-2.2578125.28125-3.68091018.96479697-6.70321956 2.82918632-9.9296875 4.78125-6.5625 3.9375-6.5625 3.9375-8.8125 3.9375-.12375.969375-.2475 1.93875-.375 2.9375-.20625 1.010625-.4125 2.02125-.625 3.0625-.66.33-1.32.66-2 1-.33 5.94-.66 11.88-1 18l4 1c1.32296047 6.37426409 1.32296047 6.37426409 0 8.9375-2.93855335 1.56110647-5.70042112 1.0625-9 1.0625-3.35161246 1.38214122-3.35161246 1.38214122-6 3-.33-.66-.66-1.32-1-2 .804375-.350625 1.60875-.70125 2.4375-1.0625 2.94339389-1.77648202 2.94339389-1.77648202 3.25-5.5.103125-1.134375.20625-2.26875.3125-3.4375l2-2h3c0-5.94 0-11.88 0-18-1.98-.99-1.98-.99-4-2 0-1.65 0-3.3 0-5h2c0-.66 0-1.32 0-2 1.15757812.0928125 2.31515625.185625 3.5078125.28125 5.07951641 0 8.24422207-2.01321071 12.3671875-4.78125 6.94594595-4.5 6.94594595-4.5 9.125-4.5.495-2.97.495-2.97 1-6 .99-.33 1.98-.66 3-1-.13890602-4.25025618-.28731994-8.50012842-.4375-12.75-.03931641-1.2065625-.07863281-2.413125-.11914062-3.65625-.04189454-1.16015625-.08378907-2.3203125-.12695313-3.515625-.03665771-1.06831055-.07331543-2.13662109-.11108398-3.23730469-.17725474-2.45248053-.33168703-4.5448175-1.20532227-6.84082031-1.97145886-.74685635-3.98059919-1.39463663-6-2-2.81644828-1.40471411-5.52766204-2.98444146-8.25-4.5625-1.42173013-.81405515-2.84359863-1.62786869-4.265625-2.44140625-.62165039-.35908447-1.24330078-.71816895-1.88378906-1.08813477-1.1814369-.67018972-2.38569586-1.30051394-3.60058594-1.90795898.14154136 2.56280208.28808562 5.12515485.4375 7.6875.03931641.72123047.07863281 1.44246094.11914062 2.18554688.22521616 3.79402594.57175243 7.41346804 1.44335938 11.12695312-.8353125.185625-.8353125.185625-1.6875.375-4.31209341 1.16543065-8.1116392 2.97687735-11.95703125 5.2265625-.84111328.48984375-1.68222656.9796875-2.54882813 1.484375-.8643164.50789063-1.72863281 1.01578125-2.61914062 1.5390625-1.32547852.7734375-1.32547852.7734375-2.67773438 1.5625-2.17171351 1.26781114-4.34154742 2.53872348-6.50976562 3.8125 0-.99 0-1.98 0-3 .62044189-.34256836 1.24088379-.68513672 1.88012695-1.03808594 2.81595897-1.56152213 5.62415032-3.13652493 8.43237305-4.71191406.97646484-.53882813 1.95292969-1.07765625 2.95898438-1.6328125 1.40668945-.79277344 1.40668945-.79277344 2.84179687-1.6015625.86407471-.48178711 1.72814941-.96357422 2.6184082-1.45996094 3.00192968-2.05879839 4.92281137-3.94580567 5.7006836-7.5703125.02618408-.69125976.05236816-1.38251953.0793457-2.09472656.05317383-1.13115234.05317383-1.13115234.10742187-2.28515625.0225586-.77730469.04511719-1.55460937.06835938-2.35546875.03416016-.79277344.06832031-1.58554688.10351562-2.40234375.08217542-1.94873129.14726483-3.89816987.20898438-5.84765625-.65597168.39380859-1.31194336.78761719-1.98779297 1.19335938-2.95971312 1.77341435-5.92338623 3.54010059-8.88720703 5.30664062-1.03253906.62003906-2.06507813 1.24007812-3.12890625 1.87890625-.98613281.58652344-1.97226563 1.17304688-2.98828125 1.77734375-1.36680908.81694336-1.36680908.81694336-2.76123047 1.65039062-2.24658203 1.19335938-2.24658203 1.19335938-4.24658203 1.19335938-.33 1.65-.66 3.3-1 5-4.75 1.125-4.75 1.125-7 0 0-1.65 0-3.3 0-5-.80824219-.22945313-1.61648437-.45890625-2.44921875-.6953125-4.42094899-1.6244191-8.30663063-3.80725585-12.36328125-6.1796875-.77537109-.43441406-1.55074219-.86882812-2.34960938-1.31640625-1.10504882-.64388672-1.10504882-.64388672-2.23242187-1.30078125-.66878174-.38526855-1.33756348-.77053711-2.02661133-1.16748047-1.94754954-1.6533241-2.20871278-2.85625022-2.57885742-5.34033203-1.32-.33-2.64-.66-4-1h2c0-2.64 0-5.28 0-8-.65742188-.2371875-1.31484375-.474375-1.9921875-.71875-3.87982614-1.65270516-7.47260372-3.6944643-11.1328125-5.78125-.71542969-.40347656-1.43085937-.80695313-2.16796875-1.22265625-2.97343183-1.6840184-5.86111399-3.38006558-8.70703125-5.27734375-2.74518321-.24187651-2.74518321-.24187651-5.6875-.125-.99386719.01804688-1.98773438.03609375-3.01171875.0546875-.75925781.02320313-1.51851563.04640625-2.30078125.0703125.33-.66.66-1.32 1-2h2c.33-1.65.66-3.3 1-5 2.3125-.3125 2.3125-.3125 5 0 .44061768.76272217.88123535 1.52544434 1.33520508 2.3112793 1.97806234 3.19466206 3.71330259 4.22906467 6.98901367 6.02075195 1.02802734.57041016 2.05605469 1.14082031 3.11523437 1.72851563 1.07185547.57814453 2.14371094 1.15628906 3.24804688 1.75195312 1.08345703.59748047 2.16691406 1.19496094 3.28320312 1.81054688 2.67019371 1.47037098 5.34894404 2.9251839 8.02929688 4.37695312 0-4.95 0-9.9 0-15-1.32-.66-2.64-1.32-4-2-1.25-3.125-1.25-3.125-2-6 7.625-1.125 7.625-1.125 11 0 3.35096775-1.29155229 6.39493924-3.2052472 9.5-5 .86753906-.47050781 1.73507813-.94101563 2.62890625-1.42578125 5.52231118-3.16658029 8.08135562-5.40270796 9.87109375-11.57421875h2c-.1100917-3.41731792-.24067061-6.83355574-.375-10.25-.0309375-.96808594-.061875-1.93617187-.09375-2.93359375-.05800781-1.40185547-.05800781-1.40185547-.1171875-2.83203125-.0314209-.85883789-.0628418-1.71767578-.09521484-2.60253906-.34108283-2.54793569-.97558442-4.20082899-2.31884766-6.38183594-1.92883426-1.49912174-1.92883426-1.49912174-4.125-2.6875-1.30414196-.74953355-2.59978297-1.51474795-3.875-2.3125 0-.33 0-.66 0-1z" fill="#3a75a1" transform="translate(149 35)"/><path d="m0 0 2-1c1.81591797.75683594 1.81591797.75683594 3.9921875 1.984375.78761719.44085937 1.57523438.88171875 2.38671875 1.3359375.82371094.47179687 1.64742187.94359375 2.49609375 1.4296875.81597656.45632812 1.63195312.91265625 2.47265625 1.3828125 10.950917 6.18110486 10.950917 6.18110486 12.65234375 10.8671875.41313195 3.51107077.32442758 7.02955108.3125 10.5625.01611328.95841797.03222656 1.91683594.04882812 2.90429688.00064454.91974609.00128907 1.83949218.00195313 2.78710937.00298096.83861572.00596191 1.67723145.0090332 2.54125977-.46069258 2.72820635-1.39832847 3.33732233-3.37231445 5.20483398-.30719971.8264502-.61439941 1.65290039-.9309082 2.50439453-1.90789032 4.45363207-6.18609536 6.05858796-10.2565918 8.37060547-.83853516.51046875-1.67707031 1.0209375-2.54101562 1.546875-3.99700469 2.30896445-6.38093321 3.6055829-11.07226563 3.4609375-1.05574219-.29132813-2.11148438-.58265625-3.19921875-.8828125-.80115234-.13970215-1.60230469-.2794043-2.42773438-.42333984-4.31201517-.96668374-7.91630927-3.20401707-11.75976562-5.32666016-.81919922-.43054688-1.63839844-.86109375-2.48242188-1.3046875-5.97464714-3.28482658-5.97464714-3.28482658-7.81835937-6.7109375-.16886719-.73734375-.33773437-1.4746875-.51171875-2.234375-.33-.33-.66-.66-1-1-.27834768-3.47133297-.23176202-6.95632504-.25-10.4375-.0309375-1.47049805-.0309375-1.47049805-.0625-2.97070312-.00515625-.93650391-.0103125-1.87300782-.015625-2.83789063-.0093457-.86294678-.01869141-1.72589355-.02832031-2.61499023.11762695-.70584229.2352539-1.41168457.35644531-2.13891602.99-.66 1.98-1.32 3-2 .30719971-.8058252.61439941-1.61165039.9309082-2.44189453 1.8850913-4.5106158 6.15097395-6.10113921 10.2565918-8.43310547.83853516-.51046875 1.67707031-1.0209375 2.54101562-1.546875 5.21968456-3.01527445 8.19221137-4.1077994 14.27148438-2.578125z" fill="#fafdfd" transform="translate(134 29)"/><path d="m0 0c5.50681421 1.5809886 10.26589123 4.1176624 15.25 6.875.8146875.43441406 1.629375.86882812 2.46875 1.31640625 1.16789062.64388672 1.16789062.64388672 2.359375 1.30078125.70543945.38526855 1.41087891.77053711 2.13769531 1.16748047 2.18241743 1.63950078 2.88517243 2.7647287 3.78417969 5.34033203.42709987 4.34351077.32428369 8.70017973.3125 13.0625.01611328 1.19689453.03222656 2.39378906.04882812 3.62695312.00064454 1.14533204.00128907 2.29066407.00195313 3.47070313.00298096 1.04808838.00596191 2.09617676.0090332 3.17602539-.43161413 3.088093-1.12895787 3.64597122-3.37231445 5.66381836-.1561377.66870117-.31227539 1.33740234-.47314453 2.02636719-1.02457606 3.83812458-5.14646827 5.33161585-8.40185547 7.22363281-11.2129566 6.38306306-11.2129566 6.38306306-17.0234375 5.81640625-8.53565024-2.93480166-20.19325834-8.18682675-25.1015625-16.06640625-1.09297697-3.25087669-1.15503803-5.75682643 0-9 3.48483106-3.25859398 7.48729898-5.34539217 11.6875-7.5625 1.65418945-.94069336 1.65418945-.94069336 3.34179688-1.90039062 8.9192827-4.94198323 8.9192827-4.94198323 13.97070312-4.53710938-.16371094-.65355469-.32742187-1.30710938-.49609375-1.98046875-.63239188-3.78944899-.61087334-7.50444076-.56640625-11.33203125.00451172-.74056641.00902344-1.48113281.01367188-2.24414062.01170637-1.81448837.02963914-3.62893472.04882812-5.44335938z" fill="#f9fdfd" transform="translate(190 122)"/><path d="m0 0c1.2375.66443115 1.2375.66443115 2.5 1.34228516.87881836.46349853 1.75763672.92699707 2.66308594 1.40454101.93102539.52779053 1.86205078 1.05558106 2.82128906 1.59936524 1.01707031.5755664 2.03414062 1.15113281 3.08203125 1.74414062 1.05058594.59876953 2.10117188 1.19753906 3.18359375 1.81445313 1.59908203.90395507 1.59908203.90395507 3.23046875 1.82617187 7.88052858 4.47232546 7.88052858 4.47232546 9.01953125 5.61132813.07179964 1.51928037.08392007 3.04167481.0625 4.5625-.00902344.82628906-.01804688 1.65257812-.02734375 2.50390625-.01160156.63808593-.02320313 1.27617187-.03515625 1.93359375-.66 0-1.32 0-2 0-.08467529.60755127-.16935059 1.21510254-.2565918 1.84106445-.97113192 2.82026917-2.04459043 3.29793174-4.63793945 4.7019043-.79083984.43376953-1.58167969.86753906-2.39648437 1.31445312-.83208985.43892578-1.66417969.87785156-2.52148438 1.33007813-.82048828.45052734-1.64097656.90105468-2.48632812 1.36523437-6.5142778 3.52394427-12.19598687 5.63931623-19.70117188 4.44726563-3.89590314-1.61785045-7.41353424-3.72793613-11-5.9375-.95261719-.56396485-1.90523437-1.12792969-2.88671875-1.70898438-6.82397073-4.06420511-6.82397073-4.06420511-8.11328125-5.35351562-.25-3.4375-.25-3.4375 0-7 .99-.66 1.98-1.32 3-2 .1870752-1.19411499.1870752-1.19411499.37792969-2.41235352.62207031-2.58764648.62207031-2.58764648 2.76757812-4.38037109 3.02522434-1.73437427 6.0499398-3.46237078 9.10449219-5.14477539 1.57587891-.92135743 1.57587891-.92135743 3.18359375-1.86132813 1.01707031-.57041016 2.03414062-1.14082031 3.08203125-1.72851562.93102539-.52327881 1.86205078-1.04655762 2.82128906-1.58569336 2.66308594-.88696289 2.66308594-.88696289 5.16308594-.22924805z" fill="#f9fcfd" transform="translate(75.5 141.657715)"/><path d="m0 0c2.71354986 1.4880539 5.44995216 2.93168329 8.1875 4.375 1.30624282.69483665 2.61225359 1.3901098 3.91796875 2.0859375.95519531.50789062 1.91039062 1.01578125 2.89453125 1.5390625.13657216 1.39303605.23271149 2.79006121.3125 4.1875.05800781.77730469.11601562 1.55460937.17578125 2.35546875-.86964775 4.37606748-4.02563723 6.44353347-7.56811523 8.89819336-2.39899264 1.54013458-4.83471442 2.99413092-7.29516602 4.43383789-.825.51046875-1.65 1.0209375-2.5 1.546875-5.17556337 3.03961658-8.06500205 4.09703921-14.125 2.578125-.99.495-.99.495-2 1-2.21484375-1.03222656-2.21484375-1.03222656-4.9375-2.640625-.97710937-.57621094-1.95421875-1.15242188-2.9609375-1.74609375-1.02351563-.61488281-2.04703125-1.22976562-3.1015625-1.86328125-1.02351563-.59941406-2.04703125-1.19882813-3.1015625-1.81640625-9.2861122-5.52511425-9.2861122-5.52511425-10.8359375-11.62109375.04296875-2.12890625.04296875-2.12890625.9375-4.3125 3.49386628-2.86250913 7.31072258-4.96249116 11.28564453-7.06396484 2.42844294-1.3259257 4.71185947-2.86030065 7.02685547-4.37353516 9.71880263-5.67190571 14.4233888-3.1324039 23.6875 2.4375z" fill="#f7fcfd" transform="translate(145 149)"/><path d="m0 0c2.58868192 1.26790538 5.02956904 2.67232166 7.49487305 4.16503906.84884765.474375 1.69769531.94875 2.57226562 1.4375 6.14036043 3.61485022 6.14036043 3.61485022 7.86914063 7.6796875.20496093.91007813.40992187 1.82015625.62109375 2.7578125.99.66 1.98 1.32 3 2 .62109375 2.34375.62109375 2.34375 0 5-2.32170461 1.78639722-4.3883556 3.1233654-6.9375 4.5-.68787598.38728272-1.37575196.77456543-2.08447266 1.17358399-1.36914331.76927753-2.74214272 1.53173735-4.11914062 2.28686523-1.54199311.86233342-3.04784525 1.78892348-4.54248047 2.73095703-.72316407.45246094-1.44632813.90492188-2.19140625 1.37109375-.59554688.38285157-1.19109375.76570313-1.8046875 1.16015625-4.85723567 1.62725572-9.22305907 1.62606824-13.99951172-.30688476-2.84265595-1.47919759-5.58077497-3.06701108-8.32080078-4.72827149-1.42892578-.82081054-1.42892578-.82081054-2.88671875-1.65820312-6.97083311-4.10195243-6.97083311-4.10195243-8.11328125-7.52929688-.66-.33-1.32-.66-2-1-.98614476-4.8714473-.98614476-4.8714473 0-8 3.40649744-3.19235668 7.35409963-5.27832508 11.4375-7.5 1.06927734-.63164062 2.13855468-1.26328125 3.24023437-1.9140625 7.15238758-4.04208325 12.81436948-6.75055995 20.76489258-3.62597656z" fill="#f8fcfc" transform="translate(167.442627 95.959961)"/><path d="m0 0c4.41733898 1.81025288 8.45674054 4.07465686 12.5625 6.5 1.10408203.60070312 2.20816406 1.20140625 3.34570312 1.8203125 7.71523702 4.48504811 7.71523702 4.48504811 8.8022461 7.93359375.00439453 2.21484375.00439453 2.21484375-.71044922 5.74609375-.99.495-.99.495-2 1-.495 1.485-.495 1.485-1 3-3.17244384 2.39638687-6.6794964 4.27322314-10.125 6.25-.9384375.5671875-1.876875 1.134375-2.84375 1.71875-7.02154544 4.05164807-7.02154544 4.05164807-11.8984375 3.953125-1.03382812-.30421875-2.06765625-.6084375-3.1328125-.921875-.80050781-.14050781-1.60101563-.28101563-2.42578125-.42578125-4.29745128-.95861205-7.87517329-3.20043106-11.69921875-5.32421875-.81082031-.43054688-1.62164062-.86109375-2.45703125-1.3046875-4.31693535-2.38323373-7.48845804-4.17017886-9.41796875-8.9453125.25-2.0625.25-2.0625 1-4 .08572266-.63325195.17144531-1.26650391.25976562-1.91894531 1.59891779-4.49511056 7.31736203-6.53091691 11.24023438-8.83105469.969375-.60199219 1.93875-1.20398438 2.9375-1.82421875 5.83164702-3.45666174 10.74816539-6.20004291 17.5625-4.42578125z" fill="#f8fcfd" transform="translate(107 95)"/><path d="m0 0c4.81212474 1.85363673 9.15968536 4.18968307 13.625 6.75.763125.41765625 1.52625.8353125 2.3125 1.265625 4.66716149 2.68566486 7.139687 4.72355864 9.0625 9.984375h6c.13664062-.86753906.27328125-1.73507813.4140625-2.62890625 2.36575086-5.02867732 6.20704644-6.69606338 10.9609375-9.30859375 1.29550781-.75893555 1.29550781-.75893555 2.6171875-1.53320312 6.47540208-3.66239948 6.47540208-3.66239948 11.0078125-2.52929688v24c-3.6106851 2.19413919-7.23547886 4.35464502-10.875 6.5-1.51980469.93005859-1.51980469.93005859-3.0703125 1.87890625-6.36721257 3.71420734-11.63791449 6.36519087-19.0546875 4.62109375-3.90518257-1.56235403-7.41419115-3.56291091-11-5.75-.93972656-.53882813-1.87945312-1.07765625-2.84765625-1.6328125-7.77497842-4.58667792-7.77497842-4.58667792-9.15234375-8.6171875-.22705078-2.56542969-.22705078-2.56542969-.1953125-5.421875.00966797-1.53720703.00966797-1.53720703.01953125-3.10546875.01675781-1.06347656.03351562-2.12695313.05078125-3.22265625.00902344-1.07894531.01804688-2.15789062.02734375-3.26953125.0235432-2.66038153.05642826-5.32031211.09765625-7.98046875z" fill="#f6fbfc" transform="translate(46 170)"/><path d="m0 0c2.29589844 1.10742188 2.29589844 1.10742188 4.609375 2.46875.83660156.48855469 1.67320312.97710937 2.53515625 1.48046875.85980469.51175781 1.71960938 1.02351562 2.60546875 1.55078125 1.31291016.76763672 1.31291016.76763672 2.65234375 1.55078125 6.42196311 3.77352561 6.42196311 3.77352561 7.59765625 4.94921875.3034668 2.38183594.3034668 2.38183594 0 5-1.60620117 1.56347656-1.60620117 1.56347656-3.85546875 2.890625-.82419434.50208984-1.64838867 1.00417969-2.49755859 1.52148438-.87350098.5240039-1.74700196 1.04800781-2.64697266 1.58789062-1.68629747 1.13662401-3.36987635 2.27729122-5.05078125 3.421875-13.63718283 8.8143392-13.63718283 8.8143392-19.734375 8.19140625-3.144815-1.57837112-5.56409087-3.30959912-8.21484375-5.61328125-1.34928674-.88250646-2.70275766-1.75868993-4.0625-2.625-3.43751809-2.77926995-5.42222545-4.5481175-6.625-8.8125.83587731-3.11554268 1.43209495-3.26862617 4.125-4.85546875.72550049-.43352783 1.45100098-.86705566 2.19848633-1.3137207 1.17018677-.68968872 1.17018677-.68968872 2.36401367-1.39331055 1.58751687-.97611168 3.17475124-1.95268292 4.76171875-2.9296875 1.641012-.98329962 3.28294815-1.96505849 4.92578125-2.9453125.82822266-.51046875 1.65644531-1.0209375 2.50976562-1.546875.80501954-.47695312 1.61003907-.95390625 2.43945313-1.4453125.71889404-.43425293 1.43778809-.86850586 2.1784668-1.31591797 2.84498297-1.06372925 4.30620227-.71822452 7.18481445.18310547z" fill="#f7fbfc" transform="translate(164 199)"/><path d="m0 0c2.56655009 1.27398323 4.9933749 2.67836565 7.44042969 4.16821289 1.26070312.7115625 1.26070312.7115625 2.546875 1.4375 4.87688451 2.88250363 7.44898818 4.99637258 9.578125 10.4375.66.33 1.32.66 2 1v15c-5.74465012-1.91488337-10.13738208-4.20782153-15.25-7.3125-1.22203125-.7105957-1.22203125-.7105957-2.46875-1.43554687-5.91781105-3.5810595-5.91781105-3.5810595-7.828125-7.10742188-.14953125-.70769531-.2990625-1.41539062-.453125-2.14453125-1.65.33-3.3.66-5 1-.05994141.59329102-.11988281 1.18658203-.18164063 1.79785156-1.17937732 3.17362274-2.97835732 3.82266187-5.91210937 5.43652344-1.02996094.57363281-2.05992188 1.14726563-3.12109375 1.73828125-1.08410156.58652344-2.16820313 1.17304688-3.28515625 1.77734375-1.08410156.60199219-2.16820313 1.20398438-3.28515625 1.82421875-8.01859234 4.42578125-8.01859234 4.42578125-9.21484375 4.42578125 0-4.95 0-9.9 0-15l2-1c.12052734-.78141357.24105468-1.56282715.36523437-2.36791992 1.01151545-4.19428772 3.86725369-5.18014663 7.39257813-7.3371582.90492187-.53044922 1.80984375-1.06089844 2.7421875-1.60742188.87398437-.54978516 1.74796875-1.09957031 2.6484375-1.66601562 6.58284142-3.93114789 11.89415725-5.96974663 19.28613281-3.06469727z" fill="#f4fbfc" transform="translate(109.43457 74.956787)"/><path d="m0 0c15.57003749 6.80317283 15.57003749 6.80317283 18.4921875 13.3359375.25136719 1.31871094.25136719 1.31871094.5078125 2.6640625h3v13c-5.63388768 1.12677754-5.63388768 1.12677754-9.828125-1.16796875-.88171875-.48146484-1.7634375-.96292969-2.671875-1.45898437-1.36125-.77247071-1.36125-.77247071-2.75-1.56054688-.92296875-.49564453-1.8459375-.99128906-2.796875-1.50195312-6.7596629-3.76254766-6.7596629-3.76254766-7.72167969-6.48754883-.11456543-.90238404-.11456543-.90238404-.23144531-1.82299805-2.37305578-.41780879-2.37305578-.41780879-5 0-.41121094.74765625-.82242188 1.4953125-1.24609375 2.265625-2.2194151 3.46011262-4.96352566 4.93332024-8.50390625 6.796875-.89332031.48823242-.89332031.48823242-1.8046875.98632812-1.20069437.65622366-2.40448492 1.30681448-3.61132812 1.95166016-1.9124209 1.04225921-3.78542871 2.14050309-5.66210938 3.24560547-3.171875 1.75390625-3.171875 1.75390625-5.171875 1.75390625-.08076963-2.45898655-.14037143-4.91533742-.1875-7.375-.02513672-.69867188-.05027344-1.39734375-.07617188-2.1171875-.02929687-2.03125-.02929687-2.03125.26367188-5.5078125.99-.66 1.98-1.32 3-2 .21914062-.75667969.43828125-1.51335937.6640625-2.29296875 4.52096879-9.16091044 21.96510221-15.64917237 31.3359375-12.70703125z" fill="#f5fbfc" transform="translate(167 75)"/><path d="m0 0v26c-3.50411594 1.97792415-7.00906749 3.95423558-10.51635742 5.92651367-1.19258463.6712645-2.38464697 1.34345781-3.57617188 2.01660156-1.71386952.96802552-3.42978567 1.9324247-5.14575195 2.89672852-1.03165283.58128662-2.06330566 1.16257324-3.1262207 1.76147461-2.63549805 1.39868164-2.63549805 1.39868164-5.63549805 2.39868164-.0867982-3.79152334-.14032207-7.58279296-.1875-11.375-.02513672-1.08023438-.05027344-2.16046875-.07617188-3.2734375-.00966796-1.03125-.01933593-2.0625-.02929687-3.125-.02356567-1.42965088-.02356567-1.42965088-.04760742-2.88818359.11239013-.77166504.22478027-1.54333008.34057617-2.33837891.99-.66 1.98-1.32 3-2 .30502441-.80655029.61004883-1.61310059.92431641-2.4440918 1.29781003-3.08369796 2.4172387-3.80953231 5.28662109-5.45043945.83273438-.48017578 1.66546875-.96035156 2.5234375-1.45507813 1.30710938-.72413085 1.30710938-.72413085 2.640625-1.46289062.86367187-.50208984 1.72734375-1.00417969 2.6171875-1.52148438 6.46415816-3.66601562 6.46415816-3.66601562 11.0078125-3.66601562z" fill="#f3fafc" transform="translate(160 171)"/><path d="m0 0c4.91812962.3776092 8.54871588 2.89380317 12.625 5.4375.66773437.40798828 1.33546875.81597656 2.0234375 1.23632812 8.34820867 5.11745192 8.34820867 5.11745192 10.3515625 10.32617188l2 1v22c-6.75-2.25-6.75-2.25-10.12890625-4.27734375-1.08764648-.64678711-1.08764648-.64678711-2.19726563-1.30664063-.73798828-.44666015-1.47597656-.89332031-2.23632812-1.35351562-.74185547-.44279297-1.48371094-.88558594-2.24804688-1.34179688-2.06651183-1.23475462-4.12836553-2.47692203-6.18945312-3.72070312-1.3449353-.64666626-1.3449353-.64666626-2.71704102-1.30639648-2.28295898-1.69360352-2.28295898-1.69360352-2.86645507-4.22143555.01981933-.98339356.03963867-1.96678711.06005859-2.97998047.01160156-1.06863281.02320312-2.13726562.03515625-3.23828125.05607422-1.67255859.05607422-1.67255859.11328125-3.37890625.01417969-1.12277344.02835937-2.24554688.04296875-3.40234375.150381-8.291006.150381-8.291006 1.33203125-9.47265625z" fill="#f8fcfd" transform="translate(104 171)"/><path d="m0 0c5.26135008.86849489 9.06986275 3.02515442 13.625 5.6875.763125.42216797 1.52625.84433594 2.3125 1.27929688 4.7215329 2.74594413 6.95689609 4.81399344 9.0625 10.03320312l2 1v18c-4 2-4 2-5.96582031 1.72436523-.6712793-.23904052-1.3425586-.47808105-2.03417969-.72436523-1.08812988-.35179321-1.08812988-.35179321-2.19824219-.71069336-6.25003515-2.33954018-12.59492689-4.92665263-16.80175781-10.28930664-2.4088873-8.37711553-1.16134715-17.47937936 0-26z" fill="#f8fcfc" transform="translate(162 171)"/><path d="m0 0c4.2057217 1.96674436 8.22614715 4.22922035 12.26953125 6.5078125.83595703.46792969 1.67191406.93585938 2.53320313 1.41796875 2.0529592 1.14965715 4.10431889 2.30206927 6.15429687 3.45703125v5l3 1v16c-19.62059246-9.51890129-19.62059246-9.51890129-25-14-.66796875-2.14453125-.66796875-2.14453125-1-4-.66-.33-1.32-.66-2-1 0-4.62 0-9.24 0-14 2-1 2-1 4.04296875-.3828125z" fill="#f4fbfc" transform="translate(136.042969 122.617188)"/><path d="m0 0 4 1v14c-.99.495-.99.495-2 1-.14236084.63558838-.28472168 1.27117676-.43139648 1.92602539-.83664366 3.05164786-2.96790768 3.85166953-5.58544922 5.37304688-.67506592.37568115-1.35013184.7513623-2.0456543 1.13842773-1.37015348.78843407-2.73994826 1.57749183-4.109375 2.3671875-.66064453.37608398-1.32128906.75216797-2.00195312 1.13964844-2.25782379 1.30519118-4.45047285 2.69988691-6.63867188 4.11816406-3.1875 1.9375-3.1875 1.9375-5.1875 1.9375-.08074203-2.62561109-.1403623-5.24875676-.1875-7.875-.02513672-.74636719-.05027344-1.49273437-.07617188-2.26171875-.02929687-2.16796875-.02929687-2.16796875.26367188-5.86328125l3-2c.20496094-.75796875.40992187-1.5159375.62109375-2.296875 2.21297185-4.3381771 6.22005416-5.78232962 10.44140625-7.953125 1.65807436-.87922411 3.31565365-1.75938268 4.97265625-2.640625.73613525-.38188477 1.47227051-.76376953 2.23071289-1.15722656 1.70758992-.83244061 1.70758992-.83244061 2.73413086-1.95214844z" fill="#f1fafc" transform="translate(127 122)"/><path d="m0 0c.1083667 2.7302389.18746694 5.45614543.25 8.1875.05027344 1.15338867.05027344 1.15338867.1015625 2.33007812.06122074 3.5661083-.06764323 5.92443024-1.703125 9.13867188-4.03573763 3.57144923-8.57168126 6.05574907-13.2734375 8.65625-1.45019531.82467773-1.45019531.82467773-2.9296875 1.66601562-7.15374612 4.02148438-7.15374612 4.02148438-9.4453125 4.02148438-.05383848-2.45862401-.09359038-4.9160755-.125-7.375-.01675781-.69867188-.03351563-1.39734375-.05078125-2.1171875-.01766142-1.83678736.07274864-3.67383213.17578125-5.5078125l2-2c.10642822-.63454102.21285645-1.26908203.32250977-1.92285156.99713346-3.05715732 2.77417628-3.72192506 5.51733398-5.31152344 1.47049805-.86044922 1.47049805-.86044922 2.97070313-1.73828125 1.03189453-.58652344 2.06378906-1.17304687 3.12695312-1.77734375 1.02802734-.60199219 2.05605469-1.20398438 3.11523438-1.82421875 7.64225038-4.42578125 7.64225038-4.42578125 9.94726562-4.42578125z" fill="#f5fcfc" transform="translate(189 121)"/><path d="m0 0c4.00641574 1.8693036 7.83645367 3.97995403 11.671875 6.17578125.77988281.42603516 1.55976562.85207031 2.36328125 1.29101563 5.6542147 3.24994427 5.6542147 3.24994427 6.90234375 6.72070312-.00515625.71800781-.0103125 1.43601563-.015625 2.17578125l3 1v15c-3.78588727-1.51435491-7.00988756-3.03915381-10.51953125-5.0390625-1.02158203-.58007813-2.04316406-1.16015625-3.09570313-1.7578125-1.05509765-.60328125-2.11019531-1.2065625-3.19726562-1.828125-1.61165039-.91652344-1.61165039-.91652344-3.25585938-1.8515625-2.64548846-1.50498899-5.28877986-3.01383884-7.93164062-4.5234375 0-5.61 0-11.22 0-17 2-1 2-1 4.078125-.36328125z" fill="#f6fbfc" transform="translate(78.078125 122.636719)"/><path d="m0 0c1.35702099 5.72279052 2.47210579 11.45344192 0 17-5.72306059 5.77414734-14.24643439 10.57230059-22 13-2.83129883-.36572266-2.83129883-.36572266-5-1-.08150744-2.06183633-.1394194-4.12461349-.1875-6.1875-.03480469-1.14855469-.06960937-2.29710937-.10546875-3.48046875.32946713-3.74713952 1.1379197-5.2929589 3.29296875-8.33203125 3.09390702-2.46726127 6.52818459-4.37235896 9.9375-6.375.90685547-.55816406 1.81371094-1.11632812 2.74804688-1.69140625.87591796-.52207031 1.75183593-1.04414062 2.65429687-1.58203125.79784912-.47614746 1.59569824-.95229492 2.41772461-1.44287109 2.58248866-1.04649133 3.67868084-.87939288 6.24243164.09130859z" fill="#f3fbfc" transform="translate(73 123)"/><path d="m0 0c5.875 1.875 5.875 1.875 7 3 2.32817964.36760731 4.6618385.70241581 7 1 .495 2.475.495 2.475 1 5-.99.33-1.98.66-3 1v21l4 2c.41765625.93070313.8353125 1.86140625 1.265625 2.8203125 2.35030108 4.30888531 5.25008802 5.78300799 9.484375 8.0546875l2.09375 1.21875c4.62018795 2.55326176 7.78853759 3.13552415 13.15625 2.90625l2 2c-.55555556 4.55555556-.55555556 4.55555556-2 6-.23481693 2.18292774-.41363323 4.37203174-.5625 6.5625-.12568359 1.79630859-.12568359 1.79630859-.25390625 3.62890625-.06058594.92683594-.12117188 1.85367188-.18359375 2.80859375l4 1c.38133299 1.9914056.71325582 3.99279077 1 6-1 1-1 1-4.5625 1.0625-1.134375-.020625-2.26875-.04125-3.4375-.0625-.625-2.3125-.625-2.3125-1-5l2-3c.4603764-3.19806665.4603764-3.19806665.625-6.6875.07476562-1.17949219.14953125-2.35898438.2265625-3.57421875.04898438-.90363281.09796875-1.80726562.1484375-2.73828125-.99 0-1.98 0-3 0-.34160156-.88945313-.68320313-1.77890625-1.03515625-2.6953125-4.21059596-7.08183734-13.35437994-10.92329695-21.0546875-13.23046875-9.27644917-.87169999-19.8588145 5.1639113-26.91015625 10.92578125-1.35821872 2.62770466-1.35821872 2.62770466-2 5-1.485.495-1.485.495-3 1v15c-.33 0-.66 0-1 0 0-4.95 0-9.9 0-15-1.32-.66-2.64-1.32-4-2-1.25-3.125-1.25-3.125-2-6 7.625-1.125 7.625-1.125 11 0 3.35096775-1.29155229 6.39493924-3.2052472 9.5-5 .86753906-.47050781 1.73507813-.94101563 2.62890625-1.42578125 5.52231118-3.16658029 8.08135562-5.40270796 9.87109375-11.57421875h2c-.1100917-3.41731792-.24067061-6.83355574-.375-10.25-.0309375-.96808594-.061875-1.93617187-.09375-2.93359375-.05800781-1.40185547-.05800781-1.40185547-.1171875-2.83203125-.0314209-.85883789-.0628418-1.71767578-.09521484-2.60253906-.34108283-2.54793569-.97558442-4.20082899-2.31884766-6.38183594-1.92883426-1.49912174-1.92883426-1.49912174-4.125-2.6875-1.30414196-.74953355-2.59978297-1.51474795-3.875-2.3125 0-.33 0-.66 0-1z" fill="#1c75b7" transform="translate(149 35)"/><path d="m0 0h1v13c6.1058568.04721856 6.1058568.04721856 10.890625-2.625.87398437-.54140625 1.74796875-1.0828125 2.6484375-1.640625.89460938-.57234375 1.78921875-1.1446875 2.7109375-1.734375 1.79460462-1.1286182 3.59137352-2.25380471 5.390625-3.375.78922852-.50273437 1.57845703-1.00546875 2.39160156-1.5234375 1.96777344-1.1015625 1.96777344-1.1015625 3.96777344-1.1015625v2c-3.45434314 2.00695291-6.9141063 4.00436779-10.375 6-.98484375.57234375-1.9696875 1.1446875-2.984375 1.734375-.94101562.54140625-1.88203125 1.0828125-2.8515625 1.640625-.86931152.50273437-1.73862305 1.00546875-2.63427734 1.5234375-2.15478516 1.1015625-2.15478516 1.1015625-4.15478516 1.1015625v5c-1.98.99-1.98.99-4 2-.21880262 3.01333429-.26823203 4.32407624 1 7 3.55671213 2.85390271 7.51998456 4.85281619 11.5625 6.9375 1.6387207.88268555 1.6387207.88268555 3.31054688 1.78320312 2.6979274 1.44910512 5.40603343 2.87397974 8.12695312 4.27929688-.66.66-1.32 1.32-2 2-7.26-4.29-14.52-8.58-22-13 .144375 3.7125.28875 7.425.4375 11.25.04310303 1.1643457.08620605 2.32869141.13061523 3.52832031.03810791.92393555.07621582 1.8478711.11547852 2.79980469.03665771.94262695.07331543 1.88525391.11108398 2.85644531.18690108 2.33526337.42229154 4.35816594 1.20532227 6.56542969 2.19372234 1.04812535 2.19372234 1.04812535 5 2 1.21489694.69686982 2.41447217 1.42081378 3.6015625 2.1640625 7.81937163 4.81348583 13.87329721 8.47054844 23.3984375 6.8359375-1.75 5.75-1.75 5.75-4 8-2.625.125-2.625.125-5 0-.24532471-.76602539-.49064941-1.53205078-.7434082-2.32128906-1.43717652-3.0636683-2.47339669-3.86839614-5.36206055-5.53808594-1.22879883-.71349609-1.22879883-.71349609-2.48242187-1.44140625-1.28680665-.71736328-1.28680665-.71736328-2.59960938-1.44921875-.83853516-.49371094-1.67707031-.98742187-2.54101562-1.49609375-4.83122751-2.75315853-8.70290945-4.42235375-14.27148438-4.75390625-.38218767-1.65614657-.71395102-3.32457024-1-5l1-1c.15971977-2.37338639.2592433-4.72118272.31640625-7.09765625.0207811-.70885849.04156219-1.41771698.06297302-2.14805603.06556671-2.27216077.12441303-4.54444036.18312073-6.81678772.04317849-1.53712183.08679255-3.0742315.13085938-4.61132812.10727511-3.77526778.20852199-7.55065548.30664062-11.32617188-.99-.33-1.98-.66-3-1-.6875-2.3125-.6875-2.3125-1-5 .7115625-.61875.7115625-.61875 1.4375-1.25 2.3386175-2.6192516 2.07941037-4.9915895 2.25-8.4375.09861328-1.76923828.09861328-1.76923828.19921875-3.57421875.03738281-.90363281.07476562-1.80726563.11328125-2.73828125z" fill="#447ba5" transform="translate(44 139)"/><path d="m0 0h1v25l4 1c1.30892449 4.402746 1.30892449 4.402746.0625 6.8125-2.0625 1.1875-2.0625 1.1875-5.69921875.98046875-5.03468168-.07570522-8.15607755 1.9663582-12.23828125 4.70703125-6.94594595 4.5-6.94594595 4.5-9.125 4.5-.12375.969375-.2475 1.93875-.375 2.9375-.20625 1.010625-.4125 2.02125-.625 3.0625-.99.495-.99.495-2 1-.33 5.94-.66 11.88-1 18l4 1c1.32296047 6.37426409 1.32296047 6.37426409 0 8.9375-2.93855335 1.56110647-5.70042112 1.0625-9 1.0625-3.35161246 1.38214122-3.35161246 1.38214122-6 3-.33-.66-.66-1.32-1-2 .804375-.350625 1.60875-.70125 2.4375-1.0625 2.94339389-1.77648202 2.94339389-1.77648202 3.25-5.5.103125-1.134375.20625-2.26875.3125-3.4375l2-2h3c0-5.94 0-11.88 0-18-1.32-.66-2.64-1.32-4-2 0-1.65 0-3.3 0-5h2c0-.66 0-1.32 0-2 1.73636719.13921875 1.73636719.13921875 3.5078125.28125 5.07951641 0 8.24422207-2.01321071 12.3671875-4.78125 6.94594595-4.5 6.94594595-4.5 9.125-4.5l1-6 3-1c0-8.25 0-16.5 0-25z" fill="#458bbf" transform="translate(216 139)"/><path d="m0 0h1v25l5 2c1.85560148.98385942 3.69471172 1.9992212 5.51953125 3.0390625 1.53237305.87011719 1.53237305.87011719 3.09570313 1.7578125 1.05509765.60328125 2.11019531 1.2065625 3.19726562 1.828125 1.07443359.61101562 2.14886719 1.22203125 3.25585938 1.8515625 2.64548846 1.50498899 5.28877986 3.01383884 7.93164062 4.5234375 0-7.26 0-14.52 0-22h1v23l2 1c-.33.33-.66.66-1 1-.4435719 3.19371768-.24344891 4.63145391 1.55078125 7.34765625 4.86754766 5.27123582 11.46277198 9.75385278 18.44921875 11.65234375 4.87829099-.7571755 8.06797207-3.12251865 12-6 2.19531741-1.3341566 4.40353012-2.64735894 6.625-3.9375.98226562-.60714844 1.96453125-1.21429688 2.9765625-1.83984375.79148437-.40347656 1.58296875-.80695313 2.3984375-1.22265625l2 1c-.88522339.52956299-.88522339.52956299-1.78833008 1.06982422-2.67518643 1.60095285-5.34968507 3.2030512-8.02416992 4.80517578-.92876953.55558594-1.85753906 1.11117187-2.81445312 1.68359375-.89267579.53496094-1.78535157 1.06992188-2.70507813 1.62109375-.82218018.49226074-1.64436035.98452148-2.49145508 1.49169922-1.75099253 1.06886162-3.46960553 2.19067452-5.17651367 3.32861328-5.82248007-.25638762-10.03370665-3.16808776-14.7890625-6.20507812-3.99259153-2.43161137-6.58977207-3.003143-11.2109375-2.79492188-.66-.66-1.32-1.32-2-2 .25-1.6875.25-1.6875 1-4 .350625-1.2375.70125-2.475 1.0625-3.75.309375-1.0725.61875-2.145.9375-3.25-.71478516-.26586914-1.42957031-.53173828-2.16601562-.80566406-2.90758836-1.22535512-5.47801475-2.67331087-8.17773438-4.30371094-.99902344-.58910156-1.99804688-1.17820313-3.02734375-1.78515625-2.09282453-1.24106323-4.17877966-2.4937813-6.2578125-3.7578125-.99902344-.58394531-1.99804687-1.16789062-3.02734375-1.76953125-.90556641-.54237305-1.81113281-1.08474609-2.74414062-1.64355469-2.57592416-1.20620967-2.57592416-1.20620967-5.18872071-.23315429-.79559326.42853271-1.59118652.85706543-2.41088867 1.29858398-.66153076.35280029-1.32306152.70560059-2.00463867 1.0690918-.63139893.37294189-1.26279785.74588379-1.91333008 1.13012695-.69673828.40412109-1.39347656.80824219-2.11132813 1.22460937-1.45264323.8505522-2.90313272 1.70479226-4.3515625 2.5625-1.8404154 1.0631609-3.72700294 2.0455526-5.61914062 3.01367188-.66-.33-1.32-.66-2-1 3.28737411-2.00712206 6.58057828-4.00447034 9.875-6 .93714844-.57234375 1.87429687-1.1446875 2.83984375-1.734375.89589844-.54140625 1.79179688-1.0828125 2.71484375-1.640625.82741699-.50273437 1.65483398-1.00546875 2.50732422-1.5234375 2.06298828-1.1015625 2.06298828-1.1015625 4.06298828-1.1015625 0-8.25 0-16.5 0-25z" fill="#3f7196" transform="translate(102 171)"/><path d="m0 0c2.5625.1875 2.5625.1875 4.5625 2.1875.08121094.62390625.16242188 1.2478125.24609375 1.890625 1.20256444 3.36468808 3.76282328 4.18794011 6.81640625 5.859375 1.10472656.61359375 2.20945313 1.2271875 3.34765625 1.859375.85464844.45890625 1.70929688.9178125 2.58984375 1.390625-.66.33-1.32.66-2 1-2.8203125-1.21484375-2.8203125-1.21484375-6.125-2.9375-1.09570312-.56589844-2.19140625-1.13179687-3.3203125-1.71484375-.84304687-.44472656-1.68609375-.88945312-2.5546875-1.34765625-.33.33-.66.66-1 1-4.53488372.23255814-4.53488372.23255814-7-1-3.32045516 1.39857036-6.38590929 3.31946571-9.5 5.125-.88042969.48726562-1.76085937.97453125-2.66796875 1.4765625-.84175781.4846875-1.68351562.969375-2.55078125 1.46875-1.15918945.66153076-1.15918945.66153076-2.34179688 1.33642578-2.37309827 1.94950143-2.84857863 3.77169517-3.93945312 6.59326172-.99.33-1.98.66-3 1v22c-.33 0-.66 0-1 0 0-7.26 0-14.52 0-22-1.32-.66-2.64-1.32-4-2-.125-2.375-.125-2.375 0-5 .66-.66 1.32-1.32 2-2l3.6875.4375c7.66962392.27570544 14.16629285-5.41853389 20.3125-9.4375l2-1c.70211894-1.65204456 1.36971413-3.31923769 2-5 1-1 1-1 3.4375-1.1875z" fill="#3d7ba9" transform="translate(131.4375 20.8125)"/><path d="m0 0c2.3125-.3125 2.3125-.3125 5 0 .4547168.76650879.90943359 1.53301758 1.37792969 2.32275391 2.7644722 4.56279383 7.32310563 6.47677496 11.87207031 9.05224609.92941406.55816406 1.85882813 1.11632812 2.81640625 1.69140625 3.9358618 2.25463088 6.89544602 3.8692125 11.4609375 4.15234375 4.99614703-1.75342843 9.29903573-4.30746133 13.78515625-7.09375.90556641-.54269531 1.81113281-1.08539063 2.74414062-1.64453125 5.11648621-3.02976817 5.11648621-3.02976817 8.94335938-7.48046875.495 2.475.495 2.475 1 5-.63164062.3403125-1.26328125.680625-1.9140625 1.03125-4.31462658 2.33760748-8.61816746 4.68646638-12.86328125 7.1484375-.62890137.36416016-1.25780273.72832031-1.90576172 1.10351562-1.24206876.72155515-2.48202705 1.44675687-3.71972656 2.17578126-4.37743189 2.54101562-4.37743189 2.54101562-6.59716797 2.54101562v8c.99.33 1.98.66 3 1v3c.63292969.22429687 1.26585937.44859375 1.91796875.6796875 4.30559465 1.84447527 8.31697926 4.14746552 12.39453125 6.4453125.83595703.46792969 1.67191406.93585938 2.53320312 1.41796875 2.05295921 1.14965715 4.1043189 2.30206927 6.15429688 3.45703125-3 1-3 1-4.92944336.2590332-.71293213-.39872314-1.42586426-.79744629-2.16040039-1.20825195-.78439453-.43634766-1.56878906-.87269531-2.37695313-1.32226563-.81533203-.46728515-1.63066406-.93457031-2.47070312-1.41601562-.81146484-.44794922-1.62292969-.89589844-2.45898438-1.35742188-7.72304581-4.35252869-7.72304581-4.35252869-10.60351562-7.95507812 0-.66 0-1.32 0-2-1.32-.33-2.64-.66-4-1h2c0-2.64 0-5.28 0-8-.65742188-.2371875-1.31484375-.474375-1.9921875-.71875-3.87982614-1.65270516-7.47260372-3.6944643-11.1328125-5.78125-1.07314453-.60521484-1.07314453-.60521484-2.16796875-1.22265625-2.97343183-1.6840184-5.86111399-3.38006558-8.70703125-5.27734375-2.74518321-.24187651-2.74518321-.24187651-5.6875-.125-.99386719.01804687-1.98773438.03609375-3.01171875.0546875-.75925781.02320312-1.51851563.04640625-2.30078125.0703125l1-2h2c.33-1.65.66-3.3 1-5z" fill="#4379a2" transform="translate(100 89)"/><path d="m0 0h1v16l6 2c1.40159964.71132329 2.7811242 1.46867452 4.12890625 2.27734375 1.08764648.64678711 1.08764648.64678711 2.19726563 1.30664063.73798828.44666015 1.47597656.89332031 2.23632812 1.35351562.74185547.44279297 1.48371094.88558594 2.24804688 1.34179688 2.06651183 1.23475462 4.12836553 2.47692203 6.18945312 3.72070312 1.65.99 3.3 1.98 5 3 0-4.95 0-9.9 0-15h1v16c2.70964217-1.5811275 5.41772898-3.16482158 8.125-4.75 1.14082031-.66515625 1.14082031-.66515625 2.3046875-1.34375 3.40470606-1.99586217 6.73160258-3.99306993 9.9375-6.296875.86882812-.53109375 1.73765625-1.0621875 2.6328125-1.609375.99.33 1.98.66 3 1-2.65425854 1.76950569-5.29453051 3.25847879-8.10546875 4.7578125-2.02750366 1.12210694-4.05484098 2.24451448-6.08203125 3.3671875-1.03576172.54398438-2.07152344 1.08796875-3.13867188 1.6484375-5.27504741 2.66994749-5.27504741 2.66994749-8.36572265 7.35253906-.02349658 3.33348187.63700675 6.70936011 1.69189453 9.87402344-.99 0-1.98 0-3 0 .05833008-.85577637.11666016-1.71155273.17675781-2.59326172.14424838-6.95100256.14424838-6.95100256-3.33496093-12.64990234-2.95563663-1.86611998-5.92462602-3.40356756-9.09179688-4.88183594-1.05058594-.53625-2.10117188-1.0725-3.18359375-1.625-1.95638764-.99679066-3.92326409-1.97345783-5.90332031-2.92236328-5.4098538-2.69699165-5.4098538-2.69699165-7.66308594-4.32763672-.56762695-1.90112305-.56762695-1.90112305-.48828125-4.01171875.01611328-.75732422.03222656-1.51464844.04882813-2.29492187.04189453-.7856836.08378906-1.57136719.12695312-2.38085938.02255859-.79728516.04511719-1.59457031.06835938-2.41601562.05887118-1.96629772.14855307-3.93162929.24414062-5.89648438z" fill="#43759b" transform="translate(73 124)"/><path d="m0 0h1v19l4 1c1.32296047 6.37426409 1.32296047 6.37426409 0 8.9375-2.93855335 1.56110647-5.70042112 1.0625-9 1.0625-3.35161246 1.38214122-3.35161246 1.38214122-6 3-.33-.66-.66-1.32-1-2l2.4375-1.0625c2.94339389-1.77648202 2.94339389-1.77648202 3.25-5.5.1546875-1.7015625.1546875-1.7015625.3125-3.4375l2-2h3c0-6.27 0-12.54 0-19z" fill="#2a70a4" transform="translate(189 188)"/><path d="m0 0c1.67542976.28604898 3.34385343.61781233 5 1v3c.66773438.23460937 1.33546875.46921875 2.0234375.7109375 2.38353961 1.03224156 4.38585524 2.09600562 6.578125 3.453125 7.81937163 4.81348583 13.87329721 8.47054844 23.3984375 6.8359375-1.75 5.75-1.75 5.75-4 8-2.625.125-2.625.125-5 0-.24532471-.76602539-.49064941-1.53205078-.7434082-2.32128906-1.43717652-3.0636683-2.47339669-3.86839614-5.36206055-5.53808594-.81919922-.47566406-1.63839844-.95132813-2.48242187-1.44140625-.8578711-.47824219-1.71574219-.95648438-2.59960938-1.44921875-.83853516-.49371094-1.67707031-.98742187-2.54101562-1.49609375-4.83122751-2.75315853-8.70290945-4.42235375-14.27148438-4.75390625-.38218767-1.65614657-.71395102-3.32457024-1-5z" fill="#4e81a8" transform="translate(43 193)"/><path d="m0 0 2 2c-.59538574.30703857-1.19077148.61407715-1.80419922.93041992-2.69885349 1.40318247-5.38465955 2.829724-8.07080078 4.25708008-.93714844.48275391-1.87429687.96550781-2.83984375 1.46289062-1.34384766.72026368-1.34384766.72026368-2.71484375 1.45507813-1.24112549.65198364-1.24112549.65198364-2.50732422 1.31713867-2.52230097 1.92859013-2.95803497 3.65946633-4.06298828 6.57739258-.99.33-1.98.66-3 1v15c-.33 0-.66 0-1 0 0-4.95 0-9.9 0-15-1.32-.66-2.64-1.32-4-2-1.25-3.125-1.25-3.125-2-6 7.625-1.125 7.625-1.125 11 0 2.18174178-.88359756 2.18174178-.88359756 4.44921875-2.30859375.84755859-.49951172 1.69511719-.99902344 2.56835937-1.51367187.88107422-.53302735 1.76214844-1.06605469 2.66992188-1.61523438.89267578-.52916016 1.78535156-1.05832031 2.70507812-1.60351562 2.2080548-1.31066355 4.41002583-2.63055428 6.60742188-3.95898438z" fill="#3376a6" transform="translate(155 73)"/><path d="m0 0h6c-.99.495-.99.495-2 1-.21880262 3.01333429-.26823203 4.32407624 1 7 3.55671213 2.85390271 7.51998456 4.85281619 11.5625 6.9375 1.09248047.58845703 2.18496094 1.17691406 3.31054688 1.78320312 2.6979274 1.44910512 5.40603343 2.87397974 8.12695312 4.27929688-.66.66-1.32 1.32-2 2-7.26-4.29-14.52-8.58-22-13v23c-.66 0-1.32 0-2 0 0-10.56 0-21.12 0-32-.66-.33-1.32-.66-2-1z" fill="#5285ab" transform="translate(42 160)"/><path d="m0 0c2.1875-.3125 2.1875-.3125 5 0 1.68109586 1.65211145 3.34519528 3.32155521 5 5 4.45077212 3.48393773 8.61863136 6.20051588 14 8 4.75910622-.87063995 8.08464457-3.24894763 12-6 2.19783804-1.33000012 4.40601398-2.64309149 6.625-3.9375.98226562-.60714844 1.96453125-1.21429688 2.9765625-1.83984375.79148438-.40347656 1.58296875-.80695313 2.3984375-1.22265625.66.33 1.32.66 2 1-.59014893.35304199-1.18029785.70608398-1.78833008 1.06982422-2.67518643 1.60095285-5.34968507 3.2030512-8.02416992 4.80517578-.92876953.55558594-1.85753906 1.11117187-2.81445312 1.68359375-1.33901368.80244141-1.33901368.80244141-2.70507813 1.62109375-.82218018.49226074-1.64436035.98452148-2.49145508 1.49169922-1.75099253 1.06886162-3.46960553 2.19067452-5.17651367 3.32861328-5.82248007-.25638762-10.03370665-3.16808776-14.7890625-6.20507812-3.99259153-2.43161137-6.58977207-3.003143-11.2109375-2.79492188-.66-.66-1.32-1.32-2-2 .375-2.125.375-2.125 1-4z" fill="#45759a" transform="translate(129 220)"/><path d="m0 0c2.61580479.3269756 4.64078137.82039068 7 2v5c-1.98.99-1.98.99-4 2v22c-.33 0-.66 0-1 0 0-7.26 0-14.52 0-22-1.32-.66-2.64-1.32-4-2-.125-2.375-.125-2.375 0-5z" fill="#246ea2" transform="translate(100 37)"/><path d="m0 0c2.5625.1875 2.5625.1875 4.5625 2.1875.3125 3 .3125 3 0 6-.99.66-1.98 1.32-3 2-.58687784 3.34613512-.58687784 3.34613512-.6875 7.125-.06574219 1.28132813-.13148437 2.56265625-.19921875 3.8828125-.03738281.98742187-.07476562 1.97484375-.11328125 2.9921875-.33 0-.66 0-1 0 0-4.95 0-9.9 0-15-1.32-.66-2.64-1.32-4-2 1.03145695-6.92549669 1.03145695-6.92549669 4.4375-7.1875z" fill="#2b74a7" transform="translate(73.4375 82.8125)"/><path d="m0 0c4.40021656.36668471 6.744666 2.11670417 10 5-3.73487777-.4979837-5.81237635-.87491756-9-3 .33 7.59.66 15.18 1 23l4 1v2c-4.75-1.875-4.75-1.875-7-3-.02886984-3.97915159-.04675406-7.95827653-.0625-11.9375-.00837891-1.13630859-.01675781-2.27261719-.02539062-3.44335938-.00322266-1.07958984-.00644532-2.15917968-.00976563-3.27148437-.00523682-1.00023193-.01047363-2.00046387-.01586914-3.03100586.11352539-2.31665039.11352539-2.31665039 1.11352539-3.31665039z" fill="#cceafb" transform="translate(104 171)"/><path d="m0 0c.94875.04125 1.8975.0825 2.875.125 1.36623674 2.73247348 1.128426 4.98198902 1 8-1 1-1 1-3.9375 1.1875-3.0625-.1875-3.0625-.1875-5.0625-2.1875-.25-2.5-.25-2.5 0-5 2-2 2-2 5.125-2.125z" fill="#0f72b9" transform="translate(74.125 179.875)"/><path d="m0 0c2.5.25 2.5.25 4.5 2.25.25 2.5.25 2.5 0 5-2 2-2 2-4.5 2.25-2.5-.25-2.5-.25-4.5-2.25-.25-2.5-.25-2.5 0-5 2-2 2-2 4.5-2.25z" fill="#1374ba" transform="translate(131.5 179.75)"/><path d="m0 0h5c1.3950848 2.29778673 2.07438619 3.4792967 1.6875 6.1875-.6875 1.8125-.6875 1.8125-1.6875 2.8125-3 .125-3 .125-6 0-1-1-1-1-1.0625-4.0625.020625-.969375.04125-1.93875.0625-2.9375h2c0-.66 0-1.32 0-2z" fill="#0c70bc" transform="translate(100 131)"/><path d="m0 0c5.875 1.875 5.875 1.875 7 3 2.32817964.36760731 4.6618385.70241581 7 1 .33 1.65.66 3.3 1 5-.99.33-1.98.66-3 1v21c-.33 0-.66 0-1 0-.01981934-.61520508-.03963867-1.23041016-.06005859-1.86425781-.09543868-2.79566761-.20504096-5.59060729-.31494141-8.38574219-.0309375-.96808594-.061875-1.93617187-.09375-2.93359375-.03867188-.93457031-.07734375-1.86914063-.1171875-2.83203125-.0314209-.85883789-.0628418-1.71767578-.09521484-2.60253906-.34108283-2.54793569-.97558442-4.20082899-2.31884766-6.38183594-1.92883426-1.49912174-1.92883426-1.49912174-4.125-2.6875-1.30414196-.74953355-2.59978297-1.51474795-3.875-2.3125 0-.33 0-.66 0-1z" fill="#2a70a3" transform="translate(149 35)"/><path d="m0 0h7c.03996094.58265625.07992187 1.1653125.12109375 1.765625 1.34567884 3.42101464 3.77844409 4.2530694 6.94140625 5.984375 1.10472656.61359375 2.20945313 1.2271875 3.34765625 1.859375.85464844.45890625 1.70929688.9178125 2.58984375 1.390625-.99.495-.99.495-2 1-3.06940786-1.4100234-5.99203963-3.03541043-8.95703125-4.65234375-3.03977607-1.34624229-4.785605-1.54064189-8.04296875-1.34765625-1-1-1-1-1.0625-3.5625.020625-.804375.04125-1.60875.0625-2.4375z" fill="#1f74b3" transform="translate(129 23)"/><path d="m0 0c-.875 6.875-.875 6.875-2 8-1.99958364.04080783-4.00045254.04254356-6 0-.33-1.98-.66-3.96-1-6 3.4352048-2.29013653 4.985331-2.17842973 9-2z" fill="#0475c7" transform="translate(194 208)"/><path d="m0 0h2c1.33257403 17.85649203 1.33257403 17.85649203 0 26-.66 0-1.32 0-2 0-1.36752652-8.7521697-.70757095-17.22612019 0-26z" fill="#558bb1" transform="translate(160 140)"/><path d="m0 0c-.33 1.98-.66 3.96-1 6-2.875.625-2.875.625-6 1-2-2-2-2-2.125-4.625.04125-.78375.0825-1.5675.125-2.375 3.06890187-1.53445094 5.70094266-.54984289 9 0z" fill="#1379c4" transform="translate(194 182)"/><path d="m0 0c3.125.375 3.125.375 6 1 .125 2.375.125 2.375 0 5-.66.66-1.32 1.32-2 2-3.125-.375-3.125-.375-6-1-.125-2.375-.125-2.375 0-5z" fill="#1574b8" transform="translate(159 132)"/><path d="m0 0c1.125 3.75 1.125 3.75 0 6-.15004973 1.3734635-.24838006 2.7528526-.31640625 4.1328125-.04189453.80566406-.08378906 1.61132812-.12695313 2.44140625-.0589746 1.26263672-.0589746 1.26263672-.11914062 2.55078125-.04318359.84949219-.08636719 1.69898437-.13085938 2.57421875-.10618298 2.10006348-.20692559 4.20040073-.30664062 6.30078125h2c-.33.99-.66 1.98-1 3-.99-.66-1.98-1.32-3-2-.34057617-2.15478516-.34057617-2.15478516-.29296875-4.7890625.01450195-1.41152344.01450195-1.41152344.02929687-2.8515625.02513672-.98484375.05027344-1.9696875.07617188-2.984375.01353516-.99257813.02707031-1.98515625.04101562-3.0078125.03542695-2.45626822.08482242-4.91146035.14648438-7.3671875l2-1c.33-.99.66-1.98 1-3z" fill="#bedff0" transform="translate(164 41)"/><path d="m0 0h6c.38218767 1.65614657.71395102 3.32457024 1 5-.33.33-.66.66-1 1-.23481693 2.18292774-.41363323 4.37203174-.5625 6.5625-.12568359 1.79630859-.12568359 1.79630859-.25390625 3.62890625-.06058594.92683594-.12117187 1.85367188-.18359375 2.80859375-.33 0-.66 0-1 0 0-4.29 0-8.58 0-13-.99 0-1.98 0-3 0-.33-1.98-.66-3.96-1-6z" fill="#24699b" transform="translate(185 85)"/><path d="m0 0h4c.38133299 1.9914056.71325582 3.99279077 1 6-.33.33-.66.66-1 1-.23481693 2.18292774-.41363323 4.37203174-.5625 6.5625-.12568359 1.79630859-.12568359 1.79630859-.25390625 3.62890625-.06058594.92683594-.12117188 1.85367188-.18359375 2.80859375-.33 0-.66 0-1 0 0-4.29 0-8.58 0-13-.99-.33-1.98-.66-3-1-.042721-1.66611905-.04063832-3.33382885 0-5z" fill="#3575a4" transform="translate(43 132)"/><path d="m0 0c2.475.495 2.475.495 5 1-.33.66-.66 1.32-1 2-.66 0-1.32 0-2 0v21l4 1c-.33 1.32-.66 2.64-1 4-2.46948242-1.1262207-2.46948242-1.1262207-5-3-.56762695-2.72729492-.56762695-2.72729492-.48828125-5.98046875.01611328-1.16337891.03222656-2.32675781.04882813-3.52539063.04189453-1.2149414.08378906-2.42988281.12695312-3.68164062.03383789-1.83981445.03383789-1.83981445.06835938-3.71679688.05901009-3.03311871.1412947-6.06380534.24414062-9.09570312z" fill="#e3f8fc" transform="translate(162 171)"/><path d="m0 0 2 1c-.33.33-.66.66-1 1-.07319621 2.69654854-.09242537 5.36691458-.0625 8.0625.00451172.75861328.00902344 1.51722656.01367188 2.29882812.01182132 1.87959059.02975734 3.75914087.04882812 5.63867188h2c-.33.66-.66 1.32-1 2-1.32-.66-2.64-1.32-4-2 0-5.61 0-11.22 0-17z" fill="#c0dfeb" transform="translate(76 122)"/><path d="m0 0h1v16l2 1c-.33.33-.66.66-1 1-.23376923 6.08468557-.23376923 6.08468557 1 12-.99 0-1.98 0-3 0 0-9.9 0-19.8 0-30z" fill="#1c6496" transform="translate(102 140)"/><path d="m0 0h1c.09765625 6.15234375.09765625 6.15234375 0 8-.33.33-.66.66-1 1-.23287008 1.68183948-.41264166 3.3712416-.5625 5.0625-.12568359 1.37865234-.12568359 1.37865234-.25390625 2.78515625-.06058594.71027344-.12117187 1.42054687-.18359375 2.15234375-.66 0-1.32 0-2 0-.05386629-2.12472576-.09273071-4.24983652-.125-6.375-.02320313-1.18335937-.04640625-2.36671875-.0703125-3.5859375.1953125-3.0390625.1953125-3.0390625 2.1953125-5.0390625.6425235-2.06874034.6425235-2.06874034 1-4z" fill="#ceeaf6" transform="translate(193 85)"/><path d="m0 0c.99.33 1.98.66 3 1v18c-.66 0-1.32 0-2 0-1.26582219-3.86723631-1.1118765-7.73151262-1.0625-11.75.00451172-.69738281.00902344-1.39476562.01367188-2.11328125.01172792-1.71227678.02966159-3.42450908.04882812-5.13671875z" fill="#cbebfc" transform="translate(186 188)"/><path d="m0 0c-.92455559 1.508013-1.8650747 3.00624917-2.8125 4.5-.52207031.8353125-1.04414062 1.670625-1.58203125 2.53125-.52980469.6496875-1.05960938 1.299375-1.60546875 1.96875-.99 0-1.98 0-3 0 .33 2.31.66 4.62 1 7-.66-.33-1.32-.66-2-1-.1875-3.375-.1875-3.375 0-7l3-2c.144375-.825.28875-1.65.4375-2.5.5625-2.5.5625-2.5 2.5-3.875 2.0625-.625 2.0625-.625 4.0625.375z" fill="#dff5fb" transform="translate(56 153)"/><path d="m0 0c2.00720923.28674418 4.0085944.61866701 6 1v5c-2.31 0-4.62 0-7 0-.042721-1.66611905-.04063832-3.33382885 0-5z" fill="#0870b9" transform="translate(43 154)"/><path d="m0 0h2c.33.99.66 1.98 1 3-.46019531.65355469-.92039063 1.30710938-1.39453125 1.98046875-2.44855889 4.60519714-2.17783156 9.19033331-2.29296875 14.33203125-.03416016 1.02673828-.06832031 2.05347656-.10351562 3.11132812-.08221847 2.52528151-.15145374 5.05022728-.20898438 7.57617188-.33 0-.66 0-1 0-.05819473-4.06243957-.09366215-8.12477146-.125-12.1875-.01675781-1.15048828-.03351563-2.30097656-.05078125-3.48632812-.00644531-1.11181641-.01289063-2.22363282-.01953125-3.36914063-.01047363-1.0211792-.02094727-2.0423584-.03173828-3.09448242.23705446-2.9886705.97087976-5.15678252 2.22705078-7.86254883z" fill="#dbf5fd" transform="translate(220 134)"/><path d="m0 0h2v2l3 1c-3.63 1.98-7.26 3.96-11 6-.33-.33-.66-.66-1-1-2.67058851-.14115161-5.32432238-.04247107-8 0 2.5435373-2.5435373 4.56002461-2.4290967 8.03125-2.78125 2.05371711-.22819079 3.97567726-.68215349 5.96875-1.21875h2c-.33-1.32-.66-2.64-1-4z" fill="#dbf3fb" transform="translate(112 124)"/><path d="m0 0c2.625.9375 2.625.9375 5 2-1.32.33-2.64.66-4 1v13c-.99-.33-1.98-.66-3-1 0-4.62 0-9.24 0-14z" fill="#d0ebf6" transform="translate(134 122)"/><path d="m0 0c-.8125 1.9375-.8125 1.9375-2 4-.99.33-1.98.66-3 1-.268125.66-.53625 1.32-.8125 2-.391875.66-.78375 1.32-1.1875 2-3.125.75-3.125.75-6 1 .598125-.391875 1.19625-.78375 1.8125-1.1875 2.32937557-1.71962555 2.32937557-1.71962555 3.6875-4.375 1.93405025-3.14283165 3.77810404-4.4375 7.5-4.4375z" fill="#e1f6fc" transform="translate(86 207)"/><path d="m0 0 2 1c-2.03439927 1.32507609-4.07633107 2.63481378-6.125 3.9375-.56976563.37318359-1.13953125.74636719-1.7265625 1.13085938-3.69710957 2.33169978-6.76526556 3.67680504-11.1484375 3.93164062-1.875-1.4375-1.875-1.4375-3-3 1.0725.144375 2.145.28875 3.25.4375 5.63074138.08072747 9.63290826-3.03108473 14.2109375-6.00390625.83789062-.47308594 1.67578125-.94617188 2.5390625-1.43359375z" fill="#3e7aa5" transform="translate(207 173)"/><path d="m0 0h2c.1083667 2.7302389.18746694 5.45614543.25 8.1875.03351563.76892578.06703125 1.53785156.1015625 2.33007812.06837212 3.98267572-.05094327 5.99102507-2.1796875 9.47070313-2.171875 2.01171875-2.171875 2.01171875-5.171875 3.01171875l1-4h2c2.44989101-3.74235319 2.23086143-7.44225419 2.125-11.75-.00902344-.69738281-.01804688-1.39476563-.02734375-2.11328125-.02345737-1.71238833-.05932521-3.42459879-.09765625-5.13671875z" fill="#bfe3f8" transform="translate(187 121)"/><path d="m0 0c1.66611905-.042721 3.33382885-.04063832 5 0 1 1 1 1 1.0625 3.5625-.020625.804375-.04125 1.60875-.0625 2.4375-1.65.33-3.3.66-5 1-.33-2.31-.66-4.62-1-7z" fill="#1b75b4" transform="translate(158 89)"/><path d="m0 0 2.4375.0625c.66 1.32 1.32 2.64 2 4-3 2-3 2-5.1875 1.625-.598125-.20625-1.19625-.4125-1.8125-.625-.5625-1.9375-.5625-1.9375-1-4 1-1 1-1 3.5625-1.0625z" fill="#1e77b9" transform="translate(131.5625 219.9375)"/><path d="m0 0h5c-.33 1.98-.66 3.96-1 6-2.64.33-5.28.66-8 1l1-2h2c.33-1.65.66-3.3 1-5z" fill="#2877b3" transform="translate(100 89)"/><path d="m0 0h2v15c-2.475-.99-2.475-.99-5-2l3-1c0-3.96 0-7.92 0-12z" fill="#c9e8f6" transform="translate(100 140)"/><path d="m0 0c6 2 6 2 8 4-2.97-.495-2.97-.495-6-1-.33 4.29-.66 8.58-1 13-.33 0-.66 0-1 0 0-5.28 0-10.56 0-16z" fill="#cfeaf7" transform="translate(190 122)"/><path d="m0 0c2.475.495 2.475.495 5 1-.33 1.32-.66 2.64-1 4l4-1v2l3 2v2c-1.67299959-.65061095-3.33859237-1.32033324-5-2-.721875-.2475-1.44375-.495-2.1875-.75-2.70054973-1.86244809-3.00876408-4.16901232-3.8125-7.25z" fill="#d5eff9" transform="translate(104 67)"/><path d="m0 0h6v6c-1.65 0-3.3 0-5 0-.33-1.98-.66-3.96-1-6z" fill="#1172ba" transform="translate(70 210)"/><path d="m0 0c1.67542976.28604898 3.34385343.61781233 5 1 .33 1.32.66 2.64 1 4-1.98.33-3.96.66-6 1-.38218767-1.65614657-.71395102-3.32457024-1-5z" fill="#1b71b1" transform="translate(43 193)"/><path d="m0 0c2.475.99 2.475.99 5 2-1.32.33-2.64.66-4 1l1 21c-.66-.33-1.32-.66-2-1 0-7.59 0-15.18 0-23z" fill="#def8fd" transform="translate(46 170)"/><path d="m0 0 6 1c-.33 1.65-.66 3.3-1 5-1.65 0-3.3 0-5 0-1.125-3.75-1.125-3.75 0-6z" fill="#0374c5" transform="translate(215 165)"/><path d="m0 0h2v13c-1.65.33-3.3.66-5 1 .31710938-.55171875.63421875-1.1034375.9609375-1.671875 1.16616225-2.61290489 1.43951961-4.73391502 1.6640625-7.578125.07476562-.89203125.14953125-1.7840625.2265625-2.703125.04898438-.67546875.09796875-1.3509375.1484375-2.046875z" fill="#c9e9f9" transform="translate(187 91)"/><path d="m0 0h2v13l2 1c-1.32.33-2.64.66-4 1 0-4.95 0-9.9 0-15z" fill="#cae8f5" transform="translate(132 92)"/><path d="m0 0c-2 1-2 1-3.9375 1.375-2.17056772.46083593-2.17056772.46083593-3.5 2.25-.515625.45375-1.03125.9075-1.5625 1.375-2.6875-.3125-2.6875-.3125-5-1 8.25-6.875 8.25-6.875 14-4z" fill="#dbf4fb" transform="translate(78 143)"/><path d="m0 0 5 1c-.33 1.65-.66 3.3-1 5-1.65-.33-3.3-.66-5-1 .33-1.65.66-3.3 1-5z" fill="#0276c8" transform="translate(72 85)"/><path d="m0 0 4 2c-1.98.99-3.96 1.98-6 3-.33-.33-.66-.66-1-1-3.63194641-.19149081-3.63194641-.19149081-7 1-.99-.99-1.98-1.98-3-3h13c0-.66 0-1.32 0-2z" fill="#d1edf8" transform="translate(137 177)"/><path d="m0 0h1c.33 4.95.66 9.9 1 15-.99.33-1.98.66-3 1-.33 1.65-.66 3.3-1 5-.66-.66-1.32-1.32-2-2 .36681658-2.93453261.86437246-3.86437246 3-6 .46486718-3.12196336.46486718-3.12196336.625-6.625.07476562-1.18851563.14953125-2.37703125.2265625-3.6015625.04898438-.91523438.09796875-1.83046875.1484375-2.7734375z" fill="#5293bf" transform="translate(44 139)"/><path d="m0 0h2v4l4-1v2c-.7425.144375-1.485.28875-2.25.4375-3.34026187.68323538-6.51430595 1.48393532-9.75 2.5625-.33-.66-.66-1.32-1-2l2.9375-1.3125c3.33981765-1.3889861 3.33981765-1.3889861 4.0625-4.6875z" fill="#3b7eb1" transform="translate(100 166)"/><path d="m0 0h4c.33 1.65.66 3.3 1 5-.99 0-1.98 0-3 0v2c-.99-.33-1.98-.66-3-1-.042721-1.66611905-.04063832-3.33382885 0-5z" fill="#0572c5" transform="translate(101 38)"/><path d="m0 0c1.67542976.28604898 3.34385343.61781233 5 1-.33 1.32-.66 2.64-1 4-1.32 0-2.64 0-4 0-.5625-1.9375-.5625-1.9375-1-4z" fill="#1772b4" transform="translate(159 166)"/><path d="m0 0c-1.40742064 3.51855159-2.66466523 4.38612834-6 6-.33.99-.66 1.98-1 3-.66-.33-1.32-.66-2-1 2.44897959-5.63265306 2.44897959-5.63265306 5.0625-7.375 1.9375-.625 1.9375-.625 3.9375-.625z" fill="#d1ecf7" transform="translate(114 131)"/><path d="m0 0 2 1c-1 3-1 3-2.84765625 4.16796875-.73089844.33644531-1.46179688.67289063-2.21484375 1.01953125-.73347656.34417969-1.46695313.68835938-2.22265625 1.04296875-.84884766.38091797-.84884766.38091797-1.71484375.76953125 0-1.32 0-2.64 0-4 5.2734375-3.22265625 5.2734375-3.22265625 7-4z" fill="#e5f6f9" transform="translate(201 178)"/><path d="m0 0 4 1c-.33 1.65-.66 3.3-1 5-1.32-.33-2.64-.66-4-1 .33-1.65.66-3.3 1-5z" fill="#1772b4" transform="translate(188 138)"/><path d="m0 0c-.28875.556875-.5775 1.11375-.875 1.6875-1.1663253 2.39744645-2.1589881 4.82846939-3.125 7.3125-.66-.33-1.32-.66-2-1-.25-2.3125-.25-2.3125 0-5 2.04424538-1.97610386 3.1176825-3 6-3z" fill="#d5edf7" transform="translate(138 211)"/><path d="m0 0h8c-.60183749 2.02045442-1.27306096 4.02111039-2 6-.99.495-.99.495-2 1-.433125-.9590625-.433125-.9590625-.875-1.9375-.95323451-2.21456079-.95323451-2.21456079-3.125-3.0625 0-.66 0-1.32 0-2z" fill="#3580b6" transform="translate(72 208)"/><path d="m0 0h4c.33 1.65.66 3.3 1 5-.99.33-1.98.66-3 1-.66-.33-1.32-.66-2-1 0-1.65 0-3.3 0-5z" fill="#1276bc" transform="translate(129 118)"/><path d="m0 0c3.465 1.98 3.465 1.98 7 4v9c-.33 0-.66 0-1 0-.061875-1.0725-.12375-2.145-.1875-3.25-.96120821-4.43634559-2.1893233-5.2416469-5.8125-7.75 0-.66 0-1.32 0-2z" fill="#cae7f6" transform="translate(95 153)"/><path d="m0 0c1.66611905-.042721 3.33382885-.04063832 5 0 1 1 1 1 1.0625 3.5625-.020625.804375-.04125 1.60875-.0625 2.4375-1.32 0-2.64 0-4 0l1-3c-.99-.33-1.98-.66-3-1 0-.66 0-1.32 0-2z" fill="#1776be" transform="translate(100 131)"/><path d="m0 0 4 1v4c-.99.33-1.98.66-3 1-.66-.66-1.32-1.32-2-2 .375-2.125.375-2.125 1-4z" fill="#0b72be" transform="translate(72 118)"/><path d="m0 0c2.475.495 2.475.495 5 1v4c-1.65-.33-3.3-.66-5-1 0-1.32 0-2.64 0-4z" fill="#0573c6" transform="translate(187 85)"/><path d="m0 0 4 1v4c-1.65-.33-3.3-.66-5-1z" fill="#066fc0" transform="translate(44 133)"/><path d="m0 0c-1 3-1 3-2.8125 4.0625-.721875.309375-1.44375.61875-2.1875.9375-.680625.391875-1.36125.78375-2.0625 1.1875-1.9375.8125-1.9375.8125-4.9375-.1875 1.62170379-1.00533667 3.24747237-2.00411907 4.875-3 1.35738281-.8353125 1.35738281-.8353125 2.7421875-1.6875 2.3828125-1.3125 2.3828125-1.3125 4.3828125-1.3125z" fill="#daf2fb" transform="translate(68 124)"/><path d="m0 0c-.66 2.97-1.32 5.94-2 9-.66 0-1.32 0-2 0 0-2.64 0-5.28 0-8 2-1 2-1 4-1z" fill="#cde7f4" transform="translate(136 108)"/><path d="m0 0h6c-.33 1.32-.66 2.64-1 4-1.65.33-3.3.66-5 1 0-1.65 0-3.3 0-5z" fill="#0574c7" transform="translate(129 86)"/><path d="m0 0c2.97 1.65 5.94 3.3 9 5-.33.99-.66 1.98-1 3 0-.66 0-1.32 0-2-.94875-.2475-1.8975-.495-2.875-.75-3.125-1.25-3.125-1.25-5.125-5.25z" fill="#daf3fc" transform="translate(118 178)"/><path d="m0 0c4.40114397.50298788 6.71195019 2.08772731 10 5-3.37705625-.53725895-6.696686-1.11064623-10-2 0-.99 0-1.98 0-3z" fill="#d7f1fa" transform="translate(104 171)"/><path d="m0 0c2.475.495 2.475.495 5 1v4c-.99 0-1.98 0-3 0-.66-1.65-1.32-3.3-2-5z" fill="#0276cc" transform="translate(43 154)"/><path d="m0 0v3c-2.8125 1.5625-2.8125 1.5625-6 3-.99-.33-1.98-.66-3-1 2.97-1.65 5.94-3.3 9-5z" fill="#dff5fc" transform="translate(95 76)"/><path d="m0 0h1v10c-.99-.66-1.98-1.32-3-2 .66666667-2.66666667 1.33333333-5.33333333 2-8z" fill="#b7def0" transform="translate(76 108)"/><path d="m0 0c.99.33 1.98.66 3 1-.66.66-1.32 1.32-2 2v3c-.99 0-1.98 0-3 0 0-1.65 0-3.3 0-5z" fill="#1571ae" transform="translate(187 181)"/><path d="m0 0c1.5625 1.1875 1.5625 1.1875 3 3-.3125 2.6875-.3125 2.6875-1 5-1.76462683-3.08809695-2-4.23312136-2-8z" fill="#3181b8" transform="translate(192 104)"/><path d="m0 0v3c-2 2-2 2-4.625 2.125-.78375-.04125-1.5675-.0825-2.375-.125 4.75-3.875 4.75-3.875 7-5z" fill="#dcf3fc" transform="translate(146 101)"/></svg>